<?xml version="1.0" encoding="UTF-8"?>
<svg version="1.1" xmlns="http://www.w3.org/2000/svg" width="500" height="500">
<path d="M0 0 C6.47243401 -0.0942197 12.93865744 -0.06882281 19.41064453 0.04589844 C20.15813965 0.0584668 20.90563477 0.07103516 21.67578125 0.08398438 C47.89129312 0.67965332 74.54698481 7.2837376 98.41064453 18.04589844 C99.1618457 18.38379395 99.91304688 18.72168945 100.68701172 19.06982422 C110.56420991 23.55279644 120.22235703 28.25356099 129.41064453 34.04589844 C129.95930176 34.39072266 130.50795898 34.73554687 131.07324219 35.09082031 C138.4159789 39.73618292 138.4159789 39.73618292 141.41064453 42.04589844 C141.41064453 42.70589844 141.41064453 43.36589844 141.41064453 44.04589844 C142.10287109 44.26632813 142.79509766 44.48675781 143.50830078 44.71386719 C147.13391893 46.37784537 149.88307619 48.74705755 152.84814453 51.35839844 C153.9508361 52.31302541 155.05369984 53.26745354 156.15673828 54.22167969 C156.69153809 54.69041504 157.22633789 55.15915039 157.77734375 55.64208984 C159.42831165 57.06108318 161.12086076 58.41671454 162.82080078 59.77636719 C163.67544922 60.5253125 164.53009766 61.27425781 165.41064453 62.04589844 C165.41064453 62.70589844 165.41064453 63.36589844 165.41064453 64.04589844 C166.07064453 64.04589844 166.73064453 64.04589844 167.41064453 64.04589844 C167.41064453 64.70589844 167.41064453 65.36589844 167.41064453 66.04589844 C168.07064453 66.04589844 168.73064453 66.04589844 169.41064453 66.04589844 C169.41064453 66.70589844 169.41064453 67.36589844 169.41064453 68.04589844 C170.07064453 68.04589844 170.73064453 68.04589844 171.41064453 68.04589844 C171.41064453 68.70589844 171.41064453 69.36589844 171.41064453 70.04589844 C172.01134766 70.31305664 172.61205078 70.58021484 173.23095703 70.85546875 C175.45713047 72.07128659 176.65722818 73.17340416 178.28564453 75.09277344 C178.79611328 75.69089844 179.30658203 76.28902344 179.83251953 76.90527344 C180.35330078 77.52917969 180.87408203 78.15308594 181.41064453 78.79589844 C181.93142578 79.40433594 182.45220703 80.01277344 182.98876953 80.63964844 C191.41064453 90.59277344 191.41064453 90.59277344 191.41064453 94.04589844 C192.07064453 94.04589844 192.73064453 94.04589844 193.41064453 94.04589844 C194.58056641 95.48852539 194.58056641 95.48852539 195.87939453 97.53417969 C196.60533813 98.6737915 196.60533813 98.6737915 197.34594727 99.83642578 C197.86229736 100.66867676 198.37864746 101.50092773 198.91064453 102.35839844 C199.7093396 103.6377124 199.7093396 103.6377124 200.52416992 104.94287109 C207.84740187 116.82527543 214.69049011 129.00439931 219.37548828 142.18652344 C220.11411295 144.22679987 220.94117926 146.23593767 221.82470703 148.21777344 C230.89634131 169.16328952 235.01934403 193.30531949 235.41064453 216.04589844 C235.43336426 217.27107178 235.43336426 217.27107178 235.45654297 218.52099609 C235.55141893 224.69834699 235.52232558 230.86898623 235.41064453 237.04589844 C235.39807617 237.81015137 235.38550781 238.5744043 235.37255859 239.36181641 C234.7964741 265.98514958 228.28510059 292.77267004 217.41064453 317.04589844 C217.09401855 317.76519531 216.77739258 318.48449219 216.45117188 319.22558594 C211.03442772 331.44218214 204.64241296 342.81693437 197.41064453 354.04589844 C197.03375488 354.65353027 196.65686523 355.26116211 196.26855469 355.88720703 C195.36907707 357.30850631 194.3967717 358.68328887 193.41064453 360.04589844 C192.75064453 360.04589844 192.09064453 360.04589844 191.41064453 360.04589844 C191.19021484 360.738125 190.96978516 361.43035156 190.74267578 362.14355469 C189.0786976 365.76917283 186.70948542 368.51833009 184.09814453 371.48339844 C183.14351756 372.58609 182.18908943 373.68895375 181.23486328 374.79199219 C180.76612793 375.32679199 180.29739258 375.8615918 179.81445312 376.41259766 C178.39545979 378.06356555 177.03982843 379.75611466 175.68017578 381.45605469 C174.55675781 382.73802734 174.55675781 382.73802734 173.41064453 384.04589844 C172.75064453 384.04589844 172.09064453 384.04589844 171.41064453 384.04589844 C171.41064453 384.70589844 171.41064453 385.36589844 171.41064453 386.04589844 C170.75064453 386.04589844 170.09064453 386.04589844 169.41064453 386.04589844 C169.41064453 386.70589844 169.41064453 387.36589844 169.41064453 388.04589844 C168.75064453 388.04589844 168.09064453 388.04589844 167.41064453 388.04589844 C167.41064453 388.70589844 167.41064453 389.36589844 167.41064453 390.04589844 C166.75064453 390.04589844 166.09064453 390.04589844 165.41064453 390.04589844 C165.00990723 390.94695312 165.00990723 390.94695312 164.60107422 391.86621094 C163.38525638 394.09238438 162.28313881 395.29248209 160.36376953 396.92089844 C159.76564453 397.43136719 159.16751953 397.94183594 158.55126953 398.46777344 C157.92736328 398.98855469 157.30345703 399.50933594 156.66064453 400.04589844 C156.05220703 400.56667969 155.44376953 401.08746094 154.81689453 401.62402344 C144.86376953 410.04589844 144.86376953 410.04589844 141.41064453 410.04589844 C141.41064453 410.70589844 141.41064453 411.36589844 141.41064453 412.04589844 C139.96801758 413.21582031 139.96801758 413.21582031 137.92236328 414.51464844 C137.16262207 414.99861084 136.40288086 415.48257324 135.62011719 415.98120117 C134.78786621 416.49755127 133.95561523 417.01390137 133.09814453 417.54589844 C132.24526855 418.07836182 131.39239258 418.6108252 130.51367188 419.15942383 C118.63126754 426.48265578 106.45214366 433.32574402 93.27001953 438.01074219 C91.22974309 438.74936685 89.2206053 439.57643317 87.23876953 440.45996094 C37.71479483 461.90910475 -24.93726162 458.29791647 -74.40185547 439.17089844 C-76.81143602 438.15166738 -79.20259741 437.11517094 -81.58935547 436.04589844 C-82.30865234 435.72927246 -83.02794922 435.41264648 -83.76904297 435.08642578 C-95.98563918 429.66968163 -107.36039141 423.27766686 -118.58935547 416.04589844 C-119.1969873 415.66900879 -119.80461914 415.29211914 -120.43066406 414.90380859 C-121.85196334 414.00433097 -123.2267459 413.03202561 -124.58935547 412.04589844 C-124.58935547 411.38589844 -124.58935547 410.72589844 -124.58935547 410.04589844 C-125.28158203 409.82546875 -125.97380859 409.60503906 -126.68701172 409.37792969 C-130.31262986 407.71395151 -133.06178713 405.34473933 -136.02685547 402.73339844 C-137.12954703 401.77877146 -138.23241078 400.82434334 -139.33544922 399.87011719 C-140.13764893 399.16701416 -140.13764893 399.16701416 -140.95605469 398.44970703 C-142.60702258 397.0307137 -144.2995717 395.67508233 -145.99951172 394.31542969 C-146.85416016 393.56648438 -147.70880859 392.81753906 -148.58935547 392.04589844 C-148.58935547 391.38589844 -148.58935547 390.72589844 -148.58935547 390.04589844 C-149.24935547 390.04589844 -149.90935547 390.04589844 -150.58935547 390.04589844 C-150.58935547 389.38589844 -150.58935547 388.72589844 -150.58935547 388.04589844 C-151.24935547 388.04589844 -151.90935547 388.04589844 -152.58935547 388.04589844 C-152.58935547 387.38589844 -152.58935547 386.72589844 -152.58935547 386.04589844 C-153.24935547 386.04589844 -153.90935547 386.04589844 -154.58935547 386.04589844 C-154.58935547 385.38589844 -154.58935547 384.72589844 -154.58935547 384.04589844 C-155.49041016 383.64516113 -155.49041016 383.64516113 -156.40966797 383.23632812 C-158.63584141 382.02051028 -159.83593912 380.91839271 -161.46435547 378.99902344 C-161.97482422 378.40089844 -162.48529297 377.80277344 -163.01123047 377.18652344 C-163.79240234 376.25066406 -163.79240234 376.25066406 -164.58935547 375.29589844 C-165.11013672 374.68746094 -165.63091797 374.07902344 -166.16748047 373.45214844 C-174.58935547 363.49902344 -174.58935547 363.49902344 -174.58935547 360.04589844 C-175.24935547 360.04589844 -175.90935547 360.04589844 -176.58935547 360.04589844 C-177.75927734 358.60327148 -177.75927734 358.60327148 -179.05810547 356.55761719 C-179.54206787 355.79787598 -180.02603027 355.03813477 -180.5246582 354.25537109 C-181.0410083 353.42312012 -181.5573584 352.59086914 -182.08935547 351.73339844 C-182.62181885 350.88052246 -183.15428223 350.02764648 -183.70288086 349.14892578 C-191.02611281 337.26652144 -197.86920105 325.08739757 -202.55419922 311.90527344 C-203.29282389 309.864997 -204.1198902 307.85585921 -205.00341797 305.87402344 C-214.07336599 284.93240078 -218.20703602 260.78410279 -218.58935547 238.04589844 C-218.60450195 237.19141113 -218.61964844 236.33692383 -218.63525391 235.45654297 C-218.72947361 228.98410896 -218.70407672 222.51788553 -218.58935547 216.04589844 C-218.57678711 215.29840332 -218.56421875 214.5509082 -218.55126953 213.78076172 C-217.95483741 187.53166234 -211.30215927 160.95829754 -200.58935547 137.04589844 C-200.27272949 136.32660156 -199.95610352 135.60730469 -199.62988281 134.86621094 C-194.21313866 122.64961473 -187.82112389 111.2748625 -180.58935547 100.04589844 C-180.21246582 99.4382666 -179.83557617 98.83063477 -179.44726562 98.20458984 C-178.547788 96.78329056 -177.57548264 95.408508 -176.58935547 94.04589844 C-175.92935547 94.04589844 -175.26935547 94.04589844 -174.58935547 94.04589844 C-174.25871094 93.00755859 -174.25871094 93.00755859 -173.92138672 91.94824219 C-172.25740854 88.32262404 -169.88819636 85.57346678 -167.27685547 82.60839844 C-166.3222285 81.50570687 -165.36780037 80.40284313 -164.41357422 79.29980469 C-163.94483887 78.76500488 -163.47610352 78.23020508 -162.99316406 77.67919922 C-161.57417073 76.02823132 -160.21853936 74.33568221 -158.85888672 72.63574219 C-158.10994141 71.78109375 -157.36099609 70.92644531 -156.58935547 70.04589844 C-155.92935547 70.04589844 -155.26935547 70.04589844 -154.58935547 70.04589844 C-154.58935547 69.38589844 -154.58935547 68.72589844 -154.58935547 68.04589844 C-153.92935547 68.04589844 -153.26935547 68.04589844 -152.58935547 68.04589844 C-152.58935547 67.38589844 -152.58935547 66.72589844 -152.58935547 66.04589844 C-151.92935547 66.04589844 -151.26935547 66.04589844 -150.58935547 66.04589844 C-150.58935547 65.38589844 -150.58935547 64.72589844 -150.58935547 64.04589844 C-149.92935547 64.04589844 -149.26935547 64.04589844 -148.58935547 64.04589844 C-148.32219727 63.44519531 -148.05503906 62.84449219 -147.77978516 62.22558594 C-146.56396731 59.9994125 -145.46184974 58.79931479 -143.54248047 57.17089844 C-142.94435547 56.66042969 -142.34623047 56.14996094 -141.72998047 55.62402344 C-141.10607422 55.10324219 -140.48216797 54.58246094 -139.83935547 54.04589844 C-139.23091797 53.52511719 -138.62248047 53.00433594 -137.99560547 52.46777344 C-128.04248047 44.04589844 -128.04248047 44.04589844 -124.58935547 44.04589844 C-124.58935547 43.38589844 -124.58935547 42.72589844 -124.58935547 42.04589844 C-91.32992177 14.6805416 -42.39367336 0.75146244 0 0 Z M-148.58935547 87.04589844 C-147.26935547 89.35589844 -145.94935547 91.66589844 -144.58935547 94.04589844 C-143.92935547 94.04589844 -143.26935547 94.04589844 -142.58935547 94.04589844 C-140.58935547 98.04589844 -140.58935547 98.04589844 -138.58935547 102.04589844 C-137.92935547 102.04589844 -137.26935547 102.04589844 -136.58935547 102.04589844 C-135.92935547 103.69589844 -135.26935547 105.34589844 -134.58935547 107.04589844 C-133.92935547 107.04589844 -133.26935547 107.04589844 -132.58935547 107.04589844 C-132.35216797 107.56667969 -132.11498047 108.08746094 -131.87060547 108.62402344 C-130.17012324 111.8383496 -128.14714237 114.80454687 -126.08935547 117.79589844 C-125.68587891 118.39789063 -125.28240234 118.99988281 -124.86669922 119.62011719 C-123.82715275 121.13312046 -122.71346704 122.59462006 -121.58935547 124.04589844 C-120.92935547 124.04589844 -120.26935547 124.04589844 -119.58935547 124.04589844 C-115.36306905 131.17788394 -119.04132504 140.63914752 -120.96435547 148.17089844 C-122.56736347 154.64613146 -124.05198409 161.10170268 -125.21435547 167.67089844 C-125.97822919 171.93408194 -126.81060366 176.07732941 -128.02685547 180.23339844 C-129.84779119 186.51610336 -130.92408598 192.93026242 -132.10644531 199.35620117 C-133.11232952 204.75091699 -134.32322713 209.98304117 -135.87451172 215.24902344 C-136.82857586 218.98186454 -137.45271382 222.74787393 -138.08935547 226.54589844 C-139.02492915 232.1224259 -140.18634774 237.48042955 -141.77294922 242.91308594 C-143.12596898 248.10505649 -144.08235369 253.37681565 -145.10644531 258.6418457 C-146.18984266 264.16924566 -147.45034394 269.61119484 -148.87451172 275.06152344 C-150.04140165 279.9331295 -150.88239057 284.8632419 -151.74560547 289.79589844 C-152.36346836 293.10576342 -153.15370714 296.35042358 -153.98779297 299.61230469 C-155.78836618 306.69107241 -157.25749692 313.8272214 -158.71435547 320.98339844 C-158.97861328 322.27052734 -159.24287109 323.55765625 -159.51513672 324.88378906 C-160.55127657 329.93562829 -161.57798272 334.98903469 -162.58935547 340.04589844 C-137.50935547 340.04589844 -112.42935547 340.04589844 -86.58935547 340.04589844 C-84.81492576 333.53965616 -83.21661757 327.59475446 -82.08935547 321.04589844 C-81.31368962 316.53964921 -80.38693002 312.20555087 -79.14794922 307.80371094 C-77.49864971 301.89634945 -76.30333858 295.94212709 -75.15185547 289.92089844 C-73.56847907 281.80106563 -71.86484546 273.73909144 -69.90698242 265.7019043 C-68.50110526 259.86002825 -67.45964026 253.98902745 -66.58935547 248.04589844 C-64.58935547 249.04589844 -64.58935547 249.04589844 -63.62451172 251.74121094 C-63.30353516 252.87300781 -62.98255859 254.00480469 -62.65185547 255.17089844 C-61.09258781 260.54500408 -61.09258781 260.54500408 -59.02685547 265.73339844 C-57.50342587 269.24391013 -56.45072254 272.73809378 -55.43310547 276.42089844 C-54.60343404 279.15573048 -54.60343404 279.15573048 -53.24560547 282.10839844 C-50.53145487 288.30068276 -48.63872116 294.8189017 -46.55029297 301.24121094 C-44.77824736 306.63851015 -42.87857986 311.84961922 -40.58935547 317.04589844 C-39.89774267 319.01648639 -39.22973003 320.99556908 -38.58935547 322.98339844 C-37.44240675 326.51688277 -36.2392803 329.98051712 -34.83935547 333.42089844 C-33.34350486 337.75886519 -32.5898152 340.78287004 -34.49169922 345.08886719 C-35.20334092 346.47922767 -35.94289952 347.85578327 -36.71435547 349.21386719 C-37.80484491 351.15870246 -37.80484491 351.15870246 -37.58935547 354.04589844 C-34.28935547 354.37589844 -30.98935547 354.70589844 -27.58935547 355.04589844 C-25.93935547 359.00589844 -24.28935547 362.96589844 -22.58935547 367.04589844 C-20.93935547 366.38589844 -19.28935547 365.72589844 -17.58935547 365.04589844 C-17.58935547 364.38589844 -17.58935547 363.72589844 -17.58935547 363.04589844 C-15.93935547 362.38589844 -14.28935547 361.72589844 -12.58935547 361.04589844 C-12.58935547 360.38589844 -12.58935547 359.72589844 -12.58935547 359.04589844 C-10.60935547 358.38589844 -8.62935547 357.72589844 -6.58935547 357.04589844 C-6.58935547 356.38589844 -6.58935547 355.72589844 -6.58935547 355.04589844 C9.91064453 354.71589844 26.41064453 354.38589844 43.41064453 354.04589844 C46.64945039 347.629631 46.64945039 347.629631 49.44580078 341.10058594 C49.7803125 340.25109375 50.11482422 339.40160156 50.45947266 338.52636719 C50.79398438 337.6665625 51.12849609 336.80675781 51.47314453 335.92089844 C55.06440479 326.71359118 55.06440479 326.71359118 57.15673828 322.67871094 C58.69730158 319.93003441 58.69730158 319.93003441 58.41064453 316.04589844 C59.07064453 316.04589844 59.73064453 316.04589844 60.41064453 316.04589844 C60.73677734 315.18867188 61.06291016 314.33144531 61.39892578 313.44824219 C63.63444575 307.59896133 65.8796036 301.77404371 68.41064453 296.04589844 C71.57180229 297.41573346 72.40335373 298.03496223 74.41064453 301.04589844 C75.07064453 301.04589844 75.73064453 301.04589844 76.41064453 301.04589844 C77.91064453 304.04589844 77.91064453 304.04589844 79.41064453 307.04589844 C80.07064453 307.04589844 80.73064453 307.04589844 81.41064453 307.04589844 C81.41064453 307.70589844 81.41064453 308.36589844 81.41064453 309.04589844 C82.07064453 309.04589844 82.73064453 309.04589844 83.41064453 309.04589844 C83.41064453 309.70589844 83.41064453 310.36589844 83.41064453 311.04589844 C84.07064453 311.04589844 84.73064453 311.04589844 85.41064453 311.04589844 C85.75095703 312.12871094 85.75095703 312.12871094 86.09814453 313.23339844 C87.68396328 316.63158147 89.67187777 318.49820842 92.41064453 321.04589844 C97.41064453 326.04589844 97.41064453 326.04589844 98.41064453 354.04589844 C125.14064453 354.04589844 151.87064453 354.04589844 179.41064453 354.04589844 C179.47123047 347.09527344 179.53181641 340.14464844 179.59423828 332.98339844 C179.63494237 328.46256182 179.67581891 323.94172797 179.71728516 319.42089844 C179.78245478 312.31414078 179.8471355 305.2073823 179.90795898 298.10058594 C179.9669546 291.22816006 180.02904781 284.35576837 180.09423828 277.48339844 C180.10513929 276.33259293 180.11604031 275.18178741 180.12727165 273.99610901 C180.27391719 258.95738053 180.52041842 243.92453518 180.87308121 228.88929749 C181.50059273 202.10531483 181.52358025 175.33663836 181.47314453 148.54589844 C181.45251953 132.87089844 181.43189453 117.19589844 181.41064453 101.04589844 C145.77064453 101.04589844 110.13064453 101.04589844 73.41064453 101.04589844 C74.40064453 96.42589844 75.39064453 91.80589844 76.41064453 87.04589844 C66.66640902 86.97820603 56.92232888 86.92313076 47.17791176 86.89046192 C42.65351269 86.87478501 38.12928239 86.85351005 33.60498047 86.81958008 C29.24131988 86.78705847 24.87782193 86.7690607 20.51404953 86.76126671 C18.84660658 86.7557102 17.17917284 86.7448601 15.51179886 86.72870827 C13.18182165 86.70702912 10.85252226 86.70392743 8.52246094 86.70532227 C7.8283461 86.69453644 7.13423126 86.68375061 6.41908264 86.67263794 C4.29827136 86.65135833 4.29827136 86.65135833 1.41064453 87.04589844 C-0.86709011 90.46250039 -1.36665255 93.46616257 -2.02685547 97.42089844 C-2.28650234 98.8848091 -2.54824555 100.34834938 -2.81201172 101.81152344 C-2.94236816 102.53533203 -3.07272461 103.25914063 -3.20703125 104.00488281 C-4.15346001 109.05733773 -5.40590904 114.04505181 -6.58935547 119.04589844 C-7.43046572 122.64829458 -8.26219217 126.25277554 -9.08935547 129.85839844 C-9.41456177 131.27149292 -9.41456177 131.27149292 -9.74633789 132.71313477 C-11.36811032 139.84905647 -12.72367807 147.00200306 -13.91357422 154.22167969 C-14.13658203 155.15367187 -14.35958984 156.08566406 -14.58935547 157.04589844 C-15.57935547 157.54089844 -15.57935547 157.54089844 -16.58935547 158.04589844 C-16.7645874 157.2236377 -16.7645874 157.2236377 -16.94335938 156.38476562 C-18.11889758 150.96967601 -19.46287341 145.62915333 -20.96435547 140.29589844 C-21.1820459 139.51875488 -21.39973633 138.74161133 -21.62402344 137.94091797 C-24.95056472 126.02937644 -24.95056472 126.02937644 -29.01513672 114.35839844 C-31.25100493 108.46930627 -32.7885258 102.37195958 -34.42724609 96.29589844 C-34.67796875 95.39097656 -34.92869141 94.48605469 -35.18701172 93.55371094 C-35.51971069 92.32612061 -35.51971069 92.32612061 -35.85913086 91.07373047 C-36.49506418 88.85637904 -36.49506418 88.85637904 -38.58935547 87.04589844 C-40.62905277 86.74823046 -40.62905277 86.74823046 -43.00588989 86.8053894 C-44.3983493 86.80126541 -44.3983493 86.80126541 -45.81893921 86.79705811 C-46.8403299 86.80424866 -47.86172058 86.81143921 -48.9140625 86.81884766 C-49.98724731 86.8185556 -51.06043213 86.81826355 -52.1661377 86.81796265 C-55.72656232 86.81936012 -59.28677974 86.83494107 -62.84716797 86.85058594 C-65.31053554 86.85431458 -67.77390459 86.85716225 -70.23727417 86.85916138 C-76.73105948 86.86680954 -83.22475579 86.88646821 -89.71850586 86.90856934 C-96.34080806 86.9290023 -102.9631246 86.93815763 -109.58544922 86.94824219 C-122.58678935 86.96971297 -135.58806768 87.00348047 -148.58935547 87.04589844 Z " fill="#FD3232" transform="translate(241.58935546875,22.9541015625)"/>
<path d="M0 0 C33.33 0 66.66 0 101 0 C101.0784223 50.03342744 101.0784223 50.03342744 101.0625 64.953125 C101.06138214 66.00133675 101.06026428 67.04954849 101.05911255 68.12952423 C100.99852485 115.60805758 100.40808138 163.09269771 99.5 210.5625 C99.48212433 211.54478577 99.46424866 212.52707153 99.4458313 213.53912354 C99.39575249 216.21500997 99.33979421 218.89069326 99.28125 221.56640625 C99.26770981 222.30559799 99.25416962 223.04478973 99.24021912 223.80638123 C99.11572422 228.96133808 98.57497798 233.82519818 98 239 C76.22 239 54.44 239 32 239 C32 231.41 32 223.82 32 216 C31.34 216 30.68 216 30 216 C29.01 213.525 29.01 213.525 28 211 C27.34 211 26.68 211 26 211 C26 210.34 26 209.68 26 209 C25.34 209 24.68 209 24 209 C24 208.34 24 207.68 24 207 C23.34 207 22.68 207 22 207 C20.39365985 205.26608049 18.8624713 203.461909 17.375 201.625 C16.55773437 200.62726563 15.74046875 199.62953125 14.8984375 198.6015625 C13 196 13 196 13 194 C12.34 194 11.68 194 11 194 C11 193.34 11 192.68 11 192 C10.34 192 9.68 192 9 192 C9 191.34 9 190.68 9 190 C8.34 190 7.68 190 7 190 C5.43567213 188.30725716 3.94671428 186.54430148 2.5 184.75 C1.7059375 183.77546875 0.911875 182.8009375 0.09375 181.796875 C-1.58748034 179.55105238 -2.88135899 177.5534197 -4 175 C-4.66 175 -5.32 175 -6 175 C-6 174.34 -6 173.68 -6 173 C-6.99 172.67 -7.98 172.34 -9 172 C-10.60812665 170.26773725 -12.14197316 168.4654991 -13.625 166.625 C-14.42164063 165.64789063 -15.21828125 164.67078125 -16.0390625 163.6640625 C-18 161 -18 161 -19 158 C-1.18 158 16.64 158 35 158 C35 150.41 35 142.82 35 135 C35.49609375 125.60546875 35.49609375 125.60546875 35.77294922 120.97412109 C36.28810446 111.10010387 36.10279868 101.19632112 36.0625 91.3125 C36.05746834 89.13476667 36.05290842 86.9570322 36.04882812 84.77929688 C36.03796971 79.5195057 36.02136715 74.25975846 36 69 C35.53944214 70.13260254 35.53944214 70.13260254 35.06958008 71.28808594 C33.90510925 74.15104407 32.74017552 77.01381332 31.57495117 79.87646484 C30.83282557 81.70005495 30.09121028 83.5238527 29.34960938 85.34765625 C26.62560073 92.03884526 23.87802768 98.71901519 21.0847168 105.3815918 C20.02836197 107.93153678 19.00727973 110.492827 18 113.0625 C16.64825177 116.47431252 15.18034474 119.80131745 13.625 123.125 C11.17282708 128.43047289 9.1243797 133.84774255 7.14306641 139.34228516 C5.65368171 143.43121194 3.9644581 147.0710838 2 151 C-11.53 151.33 -25.06 151.66 -39 152 C-38.01 153.98 -38.01 153.98 -37 156 C-36.34 156 -35.68 156 -35 156 C-35 156.66 -35 157.32 -35 158 C-34.34 158 -33.68 158 -33 158 C-31.08984375 160.08203125 -31.08984375 160.08203125 -28.9375 162.8125 C-28.22464844 163.70582031 -27.51179688 164.59914063 -26.77734375 165.51953125 C-25 168 -25 168 -24 171 C-23.34 171 -22.68 171 -22 171 C-18 175.47058824 -18 175.47058824 -18 178 C-17.34 178 -16.68 178 -16 178 C-12.10502504 182.00953304 -12.10502504 182.00953304 -11.74609375 185.39453125 C-12.02894856 188.29705673 -12.77510957 189.96204304 -14.1875 192.5 C-16.22653319 196.36614439 -17.91181763 200.21594377 -19.4375 204.3125 C-21.11871109 208.80802683 -22.95255148 213.15899022 -25 217.5 C-27.61503821 223.04766505 -29.87339258 228.674096 -32.01953125 234.41796875 C-33 237 -33 237 -34 239 C-56.11 239 -78.22 239 -101 239 C-99.69033989 234.41618961 -98.61014093 230.85376711 -96.625 226.6875 C-94.97786105 223.15722851 -93.41891421 219.62803674 -92 216 C-90.66483762 212.59159747 -89.22553018 209.259044 -87.6875 205.9375 C-84.98066799 200.01580887 -82.47648261 194.02094834 -80 188 C-77.15883974 181.09242911 -74.22759499 174.24927445 -71.11181641 167.4609375 C-69.70372331 164.3442097 -68.43096535 161.18567558 -67.1875 158 C-62.53525713 146.21081121 -57.6643348 134.50396714 -52.34375 123 C-50.11847771 118.03195023 -48.04479437 112.99995726 -45.94580078 107.97753906 C-44.15409028 103.70219388 -42.32667337 99.45554133 -40.375 95.25 C-38.14032022 90.42069201 -36.18002163 85.49457614 -34.22998047 80.54589844 C-32.39391424 75.91274607 -30.37918079 71.39362016 -28.28125 66.875 C-26.75672126 63.45410625 -25.37273748 59.98363691 -24 56.5 C-21.95082371 51.30530579 -19.7646828 46.20583261 -17.4140625 41.140625 C-15.15994761 36.13424828 -13.06947202 31.05960137 -10.95288086 25.99389648 C-8.770708 20.78666251 -6.5153524 15.6263966 -4.10546875 10.51953125 C-2.59310668 7.07262829 -1.32166049 3.52442798 0 0 Z " fill="#FD3232" transform="translate(315,131)"/>
<path d="M0 0 C30.03 0 60.06 0 91 0 C94.6771739 11.0315217 98.31351574 22.01601975 101.4765625 33.19921875 C101.73832275 34.12395996 102.00008301 35.04870117 102.26977539 36.00146484 C102.78549553 37.83023038 103.29788288 39.65994016 103.80639648 41.49072266 C105.08930334 46.05245577 106.50606664 50.48443396 108.21655273 54.90258789 C109.80371071 59.15166056 111.13158793 63.48915443 112.5 67.8125 C112.94279297 69.19405273 112.94279297 69.19405273 113.39453125 70.60351562 C115.21341045 76.32857812 116.86304712 82.07392338 118.36914062 87.8894043 C118.80789115 89.96622032 118.80789115 89.96622032 120 91 C120.18175781 89.98421875 120.36351562 88.9684375 120.55078125 87.921875 C121.68893884 81.6547369 122.82512351 75.41601118 124.4375 69.25 C125.84120306 63.87036316 126.93432231 58.45417665 128 53 C129.25060882 46.59933916 130.63806294 40.28373521 132.2890625 33.97265625 C133.42963607 29.20355469 134.23512019 24.37504948 135.05859375 19.54296875 C136.42202636 12.96341636 138.26867842 6.49245591 140 0 C160.13 0 180.26 0 201 0 C196.77812218 25.33126691 196.77812218 25.33126691 193.09765625 31.89453125 C191.68527197 34.6036954 190.64141695 37.39205385 189.5625 40.25 C185.33613621 51.44275548 180.6023578 62.3753204 175.4921875 73.19140625 C172.71021596 79.11183313 170.20094744 84.99948533 168.04858398 91.17578125 C167.06214681 93.832616 165.95488359 96.36390643 164.75390625 98.9296875 C161.64133162 105.70636014 158.82190602 112.59902703 156 119.5 C152.84470489 127.21627618 149.64083178 134.8935457 146.15234375 142.46679688 C144.34476463 146.44040724 142.67370437 150.46862147 141 154.5 C138.86248458 159.61844506 136.71032449 164.7177524 134.375 169.75 C131.90355866 175.0909672 129.75947905 180.54951972 127.625 186.03125 C126.40812624 189.08012917 125.06990773 192.0581121 123.6953125 195.0390625 C121.6948929 199.40102615 119.81038801 203.80171827 117.9921875 208.2421875 C117.73705383 208.86494568 117.48192017 209.48770386 117.21905518 210.1293335 C116.16909346 212.69725258 115.12206777 215.26634377 114.07861328 217.83691406 C113.30334747 219.74430649 112.52307499 221.64959103 111.7421875 223.5546875 C111.2869873 224.67343262 110.83178711 225.79217773 110.36279297 226.94482422 C109.09383256 229.78964159 107.66522208 232.37150723 106 235 C101.65933097 232.82966548 100.53866361 225.37175852 99 221 C98.19042954 218.40723469 97.42696031 215.80656918 96.6796875 213.1953125 C95.96317731 210.74579594 95.96317731 210.74579594 94.5 207.5 C93.30095989 204.70223974 92.39969073 202.09730347 91.5625 199.1875 C90.55339571 195.6952595 89.38721109 192.3598991 88 189 C86.30795163 184.90176878 84.98092703 180.7938147 83.80859375 176.51953125 C82.96697665 173.89710117 81.90385812 171.4157271 80.80053711 168.89428711 C79.41103446 165.60634839 78.24119534 162.24308806 77.0625 158.875 C76.80235107 158.13725342 76.54220215 157.39950684 76.27416992 156.6394043 C74.33334969 151.08451882 72.5806062 145.48859601 70.95703125 139.83203125 C69.19260261 134.51054566 69.19260261 134.51054566 66 130 C63.71227978 137.85088409 62.02240032 145.70805522 60.5625 153.75 C58.99839282 162.14747036 57.23046484 170.3400458 54.90234375 178.55859375 C53.57785635 183.60999373 52.69071073 188.71069951 51.80859375 193.85546875 C51.2051167 197.17147325 50.40678799 200.41494216 49.5703125 203.6796875 C47.66871378 211.14719828 46.24371971 218.69174231 44.80664062 226.25976562 C44.60103516 227.31744141 44.39542969 228.37511719 44.18359375 229.46484375 C44.00368896 230.409646 43.82378418 231.35444824 43.63842773 232.32788086 C43 235 43 235 41 240 C21.2 240 1.4 240 -19 240 C-20.26283009 236.21150974 -19.51680827 233.36429243 -18.75 229.5625 C-18.56630859 228.58893555 -18.56630859 228.58893555 -18.37890625 227.59570312 C-17.57933055 223.48303405 -16.61539878 219.43013834 -15.578125 215.37109375 C-13.82610841 208.45848286 -12.40816185 201.48947001 -11 194.5 C-9.38869051 186.50219821 -7.6784169 178.56646488 -5.65625 170.66210938 C-4.78428161 167.12492807 -4.12803017 163.58874385 -3.5 160 C-2.66748518 155.37382296 -1.75133894 150.79971877 -0.5625 146.25 C0.84120306 140.87036316 1.93432231 135.45417665 3 130 C4.24957189 123.60464623 5.63513463 117.29403955 7.28515625 110.98828125 C8.45828508 106.08421812 9.29517923 101.11887692 10.15625 96.15234375 C10.75401556 92.96856684 11.56344672 89.88343152 12.44140625 86.765625 C14.09627986 80.83574629 15.28631901 74.85725699 16.4375 68.8125 C18.10420593 60.2148684 19.96452762 51.74475004 22.30078125 43.3046875 C23.2611145 38.76590576 24.00791666 34.81484994 21.6875 30.63671875 C21.130625 29.99347656 20.57375 29.35023438 20 28.6875 C17 25.15277778 17 25.15277778 17 23 C16.34 23 15.68 23 15 23 C13.27490804 20.76004355 11.65445873 18.51915672 10.0625 16.1875 C9.18105427 14.90831312 8.29701608 13.630908 7.41015625 12.35546875 C7.01965088 11.78465576 6.62914551 11.21384277 6.22680664 10.62573242 C5.02411532 8.93140092 5.02411532 8.93140092 3.34936523 7.4777832 C2 6 2 6 2 3 C1.34 3 0.68 3 0 3 C0 2.01 0 1.02 0 0 Z " fill="#040404" transform="translate(108,117)"/>
<path d="M0 0 C0.33 0 0.66 0 1 0 C1.02527124 6.24795675 1.04283344 12.49590041 1.05493164 18.74389648 C1.05997298 20.87118014 1.06680591 22.99846031 1.07543945 25.12573242 C1.08751379 28.17627826 1.09323014 31.22677845 1.09765625 34.27734375 C1.10281754 35.23462875 1.10797882 36.19191376 1.11329651 37.1782074 C1.11340981 38.49946373 1.11340981 38.49946373 1.11352539 39.84741211 C1.115746 40.62684677 1.11796661 41.40628143 1.12025452 42.20933533 C1 44 1 44 0 45 C-1.34267413 45.08631874 -2.68974322 45.10706473 -4.03515625 45.09765625 C-4.84404297 45.09443359 -5.65292969 45.09121094 -6.48632812 45.08789062 C-7.33646484 45.07951172 -8.18660156 45.07113281 -9.0625 45.0625 C-9.91650391 45.05798828 -10.77050781 45.05347656 -11.65039062 45.04882812 C-13.76695663 45.03700373 -15.88348685 45.01906769 -18 45 C-16.76298554 39.68259661 -15.25179021 34.75835538 -13.1875 29.6875 C-12.92469238 29.04014893 -12.66188477 28.39279785 -12.39111328 27.72583008 C-10.43707296 22.95393861 -8.33739537 18.25820229 -6.1640625 13.58203125 C-4.58045386 10.06939597 -3.1805603 6.49375095 -1.796875 2.8984375 C-1 1 -1 1 0 0 Z " fill="#FA3232" transform="translate(343,237)"/>
<path d="M0 0 C0.33 0 0.66 0 1 0 C1.02339864 16.27292104 1.04101333 32.54583659 1.05181217 48.81877041 C1.05696035 56.37519838 1.06397481 63.93161587 1.07543945 71.48803711 C1.08543153 78.07704188 1.09186417 84.66603906 1.09408849 91.2550512 C1.09538793 94.74129143 1.09842501 98.22750996 1.10573006 101.71374321 C1.11383392 105.61312124 1.11398823 109.51247837 1.11352539 113.41186523 C1.11712067 114.55770081 1.12071594 115.70353638 1.12442017 116.88409424 C1.1230455 117.95664963 1.12167084 119.02920502 1.12025452 120.13426208 C1.12117631 121.05513328 1.1220981 121.97600447 1.12304783 122.92478085 C0.96142806 126.96399234 0.44641322 130.98228103 0 135 C-21.78 135 -43.56 135 -66 135 C-66 127.41 -66 119.82 -66 112 C-66.66 112 -67.32 112 -68 112 C-68.66 110.68 -69.32 109.36 -70 108 C-68.68 108.33 -67.36 108.66 -66 109 C-66 109.66 -66 110.32 -66 111 C-65.34 111 -64.68 111 -64 111 C-64 118.59 -64 126.18 -64 134 C-43.54 134 -23.08 134 -2 134 C-2.03946673 123.08078531 -2.03946673 123.08078531 -2.09008789 112.16162109 C-2.09301134 110.78222735 -2.09555888 109.40283274 -2.09765625 108.0234375 C-2.10277222 107.32001221 -2.10788818 106.61658691 -2.11315918 105.8918457 C-2.11366984 102.97804309 -2.03968029 100.21320929 -1.5057373 97.34423828 C-0.86495409 93.10699551 -0.82340414 88.96934626 -0.79467773 84.68994141 C-0.78477814 83.77222961 -0.77487854 82.85451782 -0.76467896 81.90899658 C-0.73321041 78.88987771 -0.70836466 75.87074313 -0.68359375 72.8515625 C-0.66301157 70.75263064 -0.64201477 68.6537028 -0.62062073 66.55477905 C-0.56553064 61.04094716 -0.51606392 55.52707867 -0.46777344 50.01318359 C-0.41746284 44.382454 -0.36182674 38.7517773 -0.30664062 33.12109375 C-0.1992189 22.08077439 -0.09773865 11.04040903 0 0 Z " fill="#E44746" transform="translate(413,235)"/>
<path d="M0 0 C1.32 0 2.64 0 4 0 C4.0232494 10.76225735 4.04097901 21.52450865 4.05181217 32.28678608 C4.05701356 37.28503117 4.06406096 42.28325899 4.07543945 47.28149414 C4.08636637 52.11201839 4.09229748 56.94252609 4.09487724 61.77306175 C4.09671391 63.6088811 4.10030022 65.44469962 4.10573006 67.28051186 C4.11307092 69.86712166 4.11398551 72.45366453 4.11352539 75.0402832 C4.11712067 75.7861972 4.12071594 76.53211121 4.12442017 77.30062866 C4.11298953 83.30347175 3.55020277 88.94776958 3 95 C-22.245 95.495 -22.245 95.495 -48 96 C-47.67 97.98 -47.34 99.96 -47 102 C-51.875 97.375 -51.875 97.375 -53 94 C-35.18 94 -17.36 94 1 94 C1 86.41 1 78.82 1 71 C1.49609375 61.60546875 1.49609375 61.60546875 1.77294922 56.97412109 C2.28810446 47.10010387 2.10279868 37.19632112 2.0625 27.3125 C2.05746834 25.13476667 2.05290842 22.9570322 2.04882812 20.77929688 C2.03796971 15.5195057 2.02136715 10.25975846 2 5 C1.34 5.66 0.68 6.32 0 7 C0 4.69 0 2.38 0 0 Z " fill="#E75C5B" transform="translate(349,195)"/>
<path d="M0 0 C2.12947557 0.00186977 4.25895158 0.00329102 6.38842773 0.00428772 C11.93832632 0.00806895 17.48819788 0.01786064 23.03808594 0.0289917 C28.72330358 0.03930136 34.40852567 0.04380562 40.09375 0.04882812 C51.20834507 0.05948775 62.32292027 0.07651001 73.4375 0.09765625 C73.1075 1.08765625 72.7775 2.07765625 72.4375 3.09765625 C36.4675 3.09765625 0.4975 3.09765625 -36.5625 3.09765625 C-35.5725 4.74765625 -34.5825 6.39765625 -33.5625 8.09765625 C-34.8825 8.09765625 -36.2025 8.09765625 -37.5625 8.09765625 C-37.5625 6.77765625 -37.5625 5.45765625 -37.5625 4.09765625 C-38.2225 4.09765625 -38.8825 4.09765625 -39.5625 4.09765625 C-39.2325 3.10765625 -38.9025 2.11765625 -38.5625 1.09765625 C-25.69619072 0.07418005 -12.90071936 -0.03368615 0 0 Z " fill="#EC7474" transform="translate(130.5625,107.90234375)"/>
<path d="M0 0 C1.27900319 2.55800637 0.85216413 3.61543996 0.29296875 6.39453125 C0.11830078 7.26787109 -0.05636719 8.14121094 -0.23632812 9.04101562 C-0.42646484 9.95560547 -0.61660156 10.87019531 -0.8125 11.8125 C-0.99103516 12.71548828 -1.16957031 13.61847656 -1.35351562 14.54882812 C-2.25972769 19.0013719 -3.29162576 22.72906441 -5 27 C20.08 27 45.16 27 71 27 C71.33 26.34 71.66 25.68 72 25 C72 26.32 72 27.64 72 29 C45.93 29 19.86 29 -7 29 C-6.43524226 25.04669582 -5.87146081 21.10268774 -5.24609375 17.16015625 C-5.11396484 16.32548828 -4.98183594 15.49082031 -4.84570312 14.63085938 C-4.71099609 13.78330078 -4.57628906 12.93574219 -4.4375 12.0625 C-4.29892578 11.18787109 -4.16035156 10.31324219 -4.01757812 9.41210938 C-3.67885739 7.27466474 -3.33949468 5.13732185 -3 3 C-2.34 3 -1.68 3 -1 3 C-0.67 2.01 -0.34 1.02 0 0 Z " fill="#E25857" transform="translate(84,336)"/>
<path d="M0 0 C1.0966046 3.28981379 0.90521939 4.27141897 0.109375 7.54296875 C-0.10436768 8.44515137 -0.31811035 9.34733398 -0.53833008 10.27685547 C-0.77318115 11.23736816 -1.00803223 12.19788086 -1.25 13.1875 C-3.43590347 22.42227689 -5.35309825 31.65416729 -7 41 C-8.485 41.495 -8.485 41.495 -10 42 C-10.83857688 39.39741676 -11.67103344 36.79314353 -12.5 34.1875 C-12.73847656 33.44951172 -12.97695312 32.71152344 -13.22265625 31.95117188 C-14.19940136 28.86744804 -15 26.25504191 -15 23 C-8.25 22 -8.25 22 -6 22 C-4.42734206 20.42734206 -4.69242023 18.67159971 -4.5 16.5 C-4.11111111 12.11111111 -4.11111111 12.11111111 -3 11 C-2.63128912 9.34080104 -2.30404678 7.67225729 -2 6 C-1.11111111 1.11111111 -1.11111111 1.11111111 0 0 Z " fill="#F34243" transform="translate(235,139)"/>
<path d="M0 0 C0.33 0 0.66 0 1 0 C1.02527124 6.24795675 1.04283344 12.49590041 1.05493164 18.74389648 C1.05997298 20.87118014 1.06680591 22.99846031 1.07543945 25.12573242 C1.08751379 28.17627826 1.09323014 31.22677845 1.09765625 34.27734375 C1.10281754 35.23462875 1.10797882 36.19191376 1.11329651 37.1782074 C1.11340981 38.49946373 1.11340981 38.49946373 1.11352539 39.84741211 C1.115746 40.62684677 1.11796661 41.40628143 1.12025452 42.20933533 C1 44 1 44 0 45 C-1.34267413 45.08631874 -2.68974322 45.10706473 -4.03515625 45.09765625 C-4.84404297 45.09443359 -5.65292969 45.09121094 -6.48632812 45.08789062 C-7.33646484 45.07951172 -8.18660156 45.07113281 -9.0625 45.0625 C-9.91650391 45.05798828 -10.77050781 45.05347656 -11.65039062 45.04882812 C-13.76695663 45.03700373 -15.88348685 45.01906769 -18 45 C-16.93084435 40.4536805 -15.86384156 36.24286199 -13.875 32 C-13.52179688 31.236875 -13.16859375 30.47375 -12.8046875 29.6875 C-12.53914063 29.130625 -12.27359375 28.57375 -12 28 C-10.98501953 31.15320599 -10.86390939 31.71544691 -12.375 34.875 C-12.91125 35.90625 -13.4475 36.9375 -14 38 C-14.33 39.98 -14.66 41.96 -15 44 C-10.38 44 -5.76 44 -1 44 C-0.67 32.12 -0.34 20.24 0 8 C-0.99 8.495 -0.99 8.495 -2 9 C-2.73075648 11.3140622 -3.40138258 13.64828869 -4 16 C-4.66 16 -5.32 16 -6 16 C-6 16.99 -6 17.98 -6 19 C-6.66 19 -7.32 19 -8 19 C-4.44117647 4.44117647 -4.44117647 4.44117647 0 0 Z " fill="#E96D6D" transform="translate(343,237)"/>
<path d="M0 0 C0.99 0.33 1.98 0.66 3 1 C4.1328125 3.765625 4.1328125 3.765625 5.125 7.25 C5.45757812 8.38953125 5.79015625 9.5290625 6.1328125 10.703125 C6.85838614 13.46161215 7.48350554 16.19617292 8 19 C7.67 18.01 7.34 17.02 7 16 C4.03 15.505 4.03 15.505 1 15 C-1.60334924 17.71182212 -1.99456691 18.89133813 -2.1875 22.75 C-2.125625 23.8225 -2.06375 24.895 -2 26 C-2.66 26.33 -3.32 26.66 -4 27 C-4.65772428 30.02934491 -4.65772428 30.02934491 -5 33 C-5.66 33 -6.32 33 -7 33 C-6.31419049 26.43025658 -4.99719166 20.11686877 -3.5 13.6875 C-3.27441406 12.69943359 -3.04882812 11.71136719 -2.81640625 10.69335938 C-1.14933036 3.44799107 -1.14933036 3.44799107 0 0 Z " fill="#F43635" transform="translate(175,271)"/>
<path d="M0 0 C4.1747899 -0.34789916 5.79678245 0.39225238 9 3 C-35.46431642 21.84522786 -35.46431642 21.84522786 -50 17 C-44.66167977 14.72627101 -40.13700525 13.68548597 -34.3671875 13.23828125 C-31.09048858 12.90844852 -28.13674642 11.9905515 -25 11 C-23.1281939 10.44739733 -21.25289923 9.90652822 -19.375 9.375 C-18.47523438 9.11460937 -17.57546875 8.85421875 -16.6484375 8.5859375 C-14.00828444 8.00183284 -11.69392336 7.89302109 -9 8 C-9 7.34 -9 6.68 -9 6 C-8.2575 5.87625 -7.515 5.7525 -6.75 5.625 C-4.19858515 5.04513299 -2.2732427 4.26291261 0 3 C0 2.01 0 1.02 0 0 Z " fill="#E65A5A" transform="translate(329,457)"/>
<path d="M0 0 C1.41184568 3.75604229 0.53327768 5.92269666 -0.9375 9.5625 C-2.58960263 13.65372889 -2.58960263 13.65372889 -3 18 C-3.3125 20.125 -3.3125 20.125 -4 22 C-4.99 22.33 -5.98 22.66 -7 23 C-7 23.66 -7 24.32 -7 25 C-7.66 25 -8.32 25 -9 25 C-9.66 27.97 -10.32 30.94 -11 34 C-11.66 34 -12.32 34 -13 34 C-12.71125 34.680625 -12.4225 35.36125 -12.125 36.0625 C-11.97318794 39.63008342 -12.6621405 40.1907743 -14.9375 42.8125 C-15.94440237 43.88821119 -16.96114056 44.95511819 -18 46 C-19.33249685 42.00250944 -18.26044552 40.86226675 -16.4375 37.125 C-15.880625 35.96226562 -15.32375 34.79953125 -14.75 33.6015625 C-14.45867187 33.0024707 -14.16734375 32.40337891 -13.8671875 31.78613281 C-9.88478623 23.58364192 -6.24892533 15.32793531 -3.078125 6.77734375 C-2.16713371 4.43055097 -1.17336571 2.22406137 0 0 Z " fill="#ED595A" transform="translate(280,214)"/>
<path d="M0 0 C0.69222656 0.03077637 1.38445312 0.06155273 2.09765625 0.09326172 C5.70218223 0.31174531 8.22386256 0.91158512 11.375 2.625 C10.42112648 2.62166908 10.42112648 2.62166908 9.44798279 2.61827087 C2.81290246 2.59610002 -3.8221673 2.58104419 -10.45727539 2.57006836 C-12.9315636 2.56504821 -15.40584885 2.55823074 -17.88012695 2.54956055 C-21.44222748 2.53739344 -25.00428869 2.53174841 -28.56640625 2.52734375 C-30.21836754 2.51960182 -30.21836754 2.51960182 -31.90370178 2.51170349 C-37.26834707 2.51131408 -42.33666109 2.73783436 -47.625 3.625 C-50.1034122 3.68960929 -52.58335823 3.71111087 -55.0625 3.6875 C-56.29871094 3.67847656 -57.53492188 3.66945313 -58.80859375 3.66015625 C-59.73800781 3.64855469 -60.66742188 3.63695312 -61.625 3.625 C-61.625 3.295 -61.625 2.965 -61.625 2.625 C-41.32616139 -1.01113979 -20.54925494 -1.03915891 0 0 Z " fill="#E66363" transform="translate(270.625,23.375)"/>
<path d="M0 0 C6.6 0.33 13.2 0.66 20 1 C20 1.66 20 2.32 20 3 C37.49 3 54.98 3 73 3 C73 3.33 73 3.66 73 4 C48.53156611 6.0150475 24.12082647 5.74654877 0 1 C0 0.67 0 0.34 0 0 Z " fill="#E66667" transform="translate(205,472)"/>
<path d="M0 0 C1.25476971 2.50953942 0.67810745 3.37233363 0 6 C0.33 6.33 0.66 6.66 1 7 C-0.375 9 -0.375 9 -2 11 C-2.66 11 -3.32 11 -4 11 C-4.04898438 11.81984375 -4.09796875 12.6396875 -4.1484375 13.484375 C-4.22320312 14.56203125 -4.29796875 15.6396875 -4.375 16.75 C-4.44460937 17.81734375 -4.51421875 18.8846875 -4.5859375 19.984375 C-4.97686912 22.83153734 -5.39400227 24.63561445 -7 27 C-9.625 27.75 -9.625 27.75 -12 28 C-11.32066406 23.34428436 -9.586572 19.38497284 -7.6875 15.125 C-7.39166016 14.44308594 -7.09582031 13.76117188 -6.79101562 13.05859375 C-4.79196387 8.52510704 -2.5220719 4.26469552 0 0 Z " fill="#F04A4A" transform="translate(51,140)"/>
<path d="M0 0 C2.79233071 2.55277419 3.48967606 4.22360282 4 8 C5.98 8 7.96 8 10 8 C9.67 10.64 9.34 13.28 9 16 C8.34 16 7.68 16 7 16 C7.309375 16.61875 7.61875 17.2375 7.9375 17.875 C9.4039278 22.18802294 9.66619026 26.4759996 10 31 C3.45456832 24.45456832 2.1635453 8.96490315 0 0 Z " fill="#EF5050" transform="translate(206,117)"/>
<path d="M0 0 C0.99 0.66 1.98 1.32 3 2 C2.4830902 9.05558168 1.28979764 15.70870382 -0.4375 22.5625 C-0.87433728 24.33447792 -1.31054103 26.10661215 -1.74609375 27.87890625 C-1.9560498 28.72727051 -2.16600586 29.57563477 -2.38232422 30.44970703 C-3.31189225 34.2877575 -4.15787569 38.14189561 -5 42 C-5.33 42 -5.66 42 -6 42 C-6.70685892 26.92034307 -6.70685892 26.92034307 -2.95703125 20.91796875 C-1.11661521 17.22962477 -1.16644987 13.06137693 -1 9 C-0.34 9 0.32 9 1 9 C0.67 6.03 0.34 3.06 0 0 Z " fill="#EA7B79" transform="translate(122,149)"/>
<path d="M0 0 C8.61993605 12.92990408 5.132474 38.94212147 5 54 C4.67 54 4.34 54 4 54 C2.97459682 46.45077186 2.88274035 39.04909157 2.9375 31.4375 C2.94201172 30.23802734 2.94652344 29.03855469 2.95117188 27.80273438 C2.96286231 24.86843641 2.97924862 21.93424551 3 19 C2.34 19 1.68 19 1 19 C0.67 12.73 0.34 6.46 0 0 Z " fill="#E66666" transform="translate(472,206)"/>
<path d="M0 0 C17.82 0 35.64 0 54 0 C54 0.33 54 0.66 54 1 C37.83 1.33 21.66 1.66 5 2 C5.33 3.98 5.66 5.96 6 8 C1.125 3.375 1.125 3.375 0 0 Z " fill="#C75350" transform="translate(296,289)"/>
<path d="M0 0 C14.52 0 29.04 0 44 0 C44 0.33 44 0.66 44 1 C30.47 1.33 16.94 1.66 3 2 C3.66 3.32 4.32 4.64 5 6 C5.66 6 6.32 6 7 6 C7 6.66 7 7.32 7 8 C7.66 8 8.32 8 9 8 C9.33 8.99 9.66 9.98 10 11 C9.01 11.495 9.01 11.495 8 12 C7.01 11.67 6.02 11.34 5 11 C4.67 9.02 4.34 7.04 4 5 C3.34 5 2.68 5 2 5 C2 4.34 2 3.68 2 3 C1.34 3 0.68 3 0 3 C0 2.01 0 1.02 0 0 Z " fill="#E25556" transform="translate(273,281)"/>
<path d="M0 0 C0.33 0 0.66 0 1 0 C0.88525534 2.54250021 0.7585303 5.08347338 0.625 7.625 C0.57859375 8.69427734 0.57859375 8.69427734 0.53125 9.78515625 C0.28814306 14.20159905 -0.50034059 17.80555031 -2 22 C-2.35045498 23.99369946 -2.66329562 25.99439081 -2.9375 28 C-3.65144496 32.59209396 -4.58344712 36.04564074 -7 40 C-8.55841007 36.88317987 -7.40765084 33.91590757 -6.75 30.625 C-6.54129272 29.54677979 -6.54129272 29.54677979 -6.32836914 28.44677734 C-5.28748683 23.17617576 -4.04858447 17.97285084 -2.6953125 12.7734375 C-1.63578735 8.54724168 -0.8050448 4.28094411 0 0 Z " fill="#E86462" transform="translate(167,305)"/>
<path d="M0 0 C1.02385156 3.1534097 0.96352253 5.01548901 -0.0390625 8.16015625 C-0.28769043 8.9493042 -0.53631836 9.73845215 -0.79248047 10.55151367 C-1.06721191 11.38013916 -1.34194336 12.20876465 -1.625 13.0625 C-1.89844238 13.90852783 -2.17188477 14.75455566 -2.45361328 15.6262207 C-4.54456708 21.95780314 -6.97773973 28.04908929 -10 34 C-10.33 34 -10.66 34 -11 34 C-11 32.02 -11 30.04 -11 28 C-10.34 28 -9.68 28 -9 28 C-9 26.35 -9 24.7 -9 23 C-8.34 23 -7.68 23 -7 23 C-7 21.02 -7 19.04 -7 17 C-6.34 17 -5.68 17 -5 17 C-5 15.35 -5 13.7 -5 12 C-4.34 12 -3.68 12 -3 12 C-3 9.69 -3 7.38 -3 5 C-2.34 5 -1.68 5 -1 5 C-0.67 3.35 -0.34 1.7 0 0 Z " fill="#E75659" transform="translate(468,308)"/>
<path d="M0 0 C0.66 0.33 1.32 0.66 2 1 C-1.3418236 11.58244141 -5.60276126 21.81829839 -10 32 C-10.66 31.67 -11.32 31.34 -12 31 C-12 30.34 -12 29.68 -12 29 C-11.34 29 -10.68 29 -10 29 C-10 27.35 -10 25.7 -10 24 C-9.34 24 -8.68 24 -8 24 C-8 22.02 -8 20.04 -8 18 C-7.34 18 -6.68 18 -6 18 C-6.020625 17.0925 -6.04125 16.185 -6.0625 15.25 C-5.96880734 10.37798165 -5.96880734 10.37798165 -5 8 C-4.01 7.67 -3.02 7.34 -2 7 C-2 5.68 -2 4.36 -2 3 C-1.34 3 -0.68 3 0 3 C0 2.01 0 1.02 0 0 Z " fill="#EC5D5D" transform="translate(347,202)"/>
<path d="M0 0 C0.33 0.66 0.66 1.32 1 2 C-0.09898702 5.29696105 -0.94597387 6.04670589 -3.5625 8.1875 C-4.20316406 8.71730469 -4.84382813 9.24710938 -5.50390625 9.79296875 C-6.24447266 10.39044922 -6.24447266 10.39044922 -7 11 C-6.67 11.99 -6.34 12.98 -6 14 C-7.423125 14.8353125 -7.423125 14.8353125 -8.875 15.6875 C-12.24227666 18.17928473 -12.53612189 19.29150878 -14 23 C-16.625 24.3125 -16.625 24.3125 -19 25 C-18.01 23.02 -17.02 21.04 -16 19 C-15.34 19 -14.68 19 -14 19 C-13.78472656 18.31421875 -13.56945312 17.6284375 -13.34765625 16.921875 C-11.60141349 13.13581823 -9.17167225 10.36576607 -6.4375 7.25 C-5.67663086 6.36634766 -5.67663086 6.36634766 -4.90039062 5.46484375 C-1.33816964 1.33816964 -1.33816964 1.33816964 0 0 Z " fill="#ED5759" transform="translate(81,98)"/>
<path d="M0 0 C0.33 0.66 0.66 1.32 1 2 C-0.91361602 6.03985604 -3.30883331 8.50846248 -7 11 C-7.99 11 -8.98 11 -10 11 C-10.0825 11.78375 -10.165 12.5675 -10.25 13.375 C-11 16 -11 16 -12.875 17.25 C-14.57726879 17.85080075 -16.28745438 18.42915146 -18 19 C-17.1875 17.0625 -17.1875 17.0625 -16 15 C-15.01 14.67 -14.02 14.34 -13 14 C-13 13.34 -13 12.68 -13 12 C-12.34 12 -11.68 12 -11 12 C-11 11.34 -11 10.68 -11 10 C-10.34 10 -9.68 10 -9 10 C-9 9.34 -9 8.68 -9 8 C-8.34 8 -7.68 8 -7 8 C-6.6596875 7.13375 -6.6596875 7.13375 -6.3125 6.25 C-4.66961977 3.4336339 -2.60466773 1.91922886 0 0 Z " fill="#F1585B" transform="translate(100,79)"/>
<path d="M0 0 C4.17189634 1.48609294 7.62853826 3.55302175 11.3125 6 C12.38113281 6.70125 13.44976562 7.4025 14.55078125 8.125 C15.76314453 9.053125 15.76314453 9.053125 17 10 C17 10.66 17 11.32 17 12 C18.65 12.66 20.3 13.32 22 14 C22 14.99 22 15.98 22 17 C21.67 16.34 21.34 15.68 21 15 C19.865625 14.87625 18.73125 14.7525 17.5625 14.625 C15.7990625 14.315625 15.7990625 14.315625 14 14 C12.8125 12 12.8125 12 12 10 C9.94999129 9.19471111 9.94999129 9.19471111 8 9 C8 8.34 8 7.68 8 7 C5.525 6.01 5.525 6.01 3 5 C3 4.34 3 3.68 3 3 C2.01 2.67 1.02 2.34 0 2 C0 1.34 0 0.68 0 0 Z " fill="#ED6B6C" transform="translate(366,55)"/>
<path d="M0 0 C1.32 0 2.64 0 4 0 C3.50628906 0.77085937 3.01257813 1.54171875 2.50390625 2.3359375 C1.86324219 3.33882813 1.22257812 4.34171875 0.5625 5.375 C-0.07558594 6.37273437 -0.71367187 7.37046875 -1.37109375 8.3984375 C-2.96899211 10.85830521 -2.96899211 10.85830521 -4 13 C-4.66 13 -5.32 13 -6 13 C-6.33 11.68 -6.66 10.36 -7 9 C-6.34 9 -5.68 9 -5 9 C-5.33 6.03 -5.66 3.06 -6 0 C-3.45840813 -1.27079593 -2.68301208 -0.71020908 0 0 Z " fill="#F24D4C" transform="translate(439,370)"/>
<path d="M0 0 C16.5 0 33 0 50 0 C50 0.33 50 0.66 50 1 C34.16 1.33 18.32 1.66 2 2 C2.33 2.99 2.66 3.98 3 5 C-0.10551666 5 -1.35261084 4.4606285 -4 3 C-2.68 2.67 -1.36 2.34 0 2 C0 1.34 0 0.68 0 0 Z " fill="#E33E3F" transform="translate(235,378)"/>
<path d="M0 0 C2.97 0.495 2.97 0.495 6 1 C6 1.66 6 2.32 6 3 C6.5775 2.649375 7.155 2.29875 7.75 1.9375 C10.35801776 0.85082593 11.39417629 1.06934867 14 2 C13.67 3.98 13.34 5.96 13 8 C13.66 8 14.32 8 15 8 C14.67 8.99 14.34 9.98 14 11 C13.01 10.67 12.02 10.34 11 10 C11 9.34 11 8.68 11 8 C10.29875 7.773125 9.5975 7.54625 8.875 7.3125 C5.28413464 5.6731919 2.92219514 3.65036303 0 1 C0 0.67 0 0.34 0 0 Z " fill="#F54A47" transform="translate(106,425)"/>
<path d="M0 0 C1.66666667 1.66666667 3.33333333 3.33333333 5 5 C5.8971875 5.8353125 5.8971875 5.8353125 6.8125 6.6875 C8 8 8 8 8 10 C8.66 10 9.32 10 10 10 C14 14.47058824 14 14.47058824 14 17 C12.35 16.67 10.7 16.34 9 16 C8.67 15.01 8.34 14.02 8 13 C7.34 13 6.68 13 6 13 C5.34 10.69 4.68 8.38 4 6 C2.68 6 1.36 6 0 6 C0 4.02 0 2.04 0 0 Z " fill="#EE5855" transform="translate(283,292)"/>
<path d="M0 0 C1.01498047 3.15320599 1.13609061 3.71544691 -0.375 6.875 C-0.91125 7.90625 -1.4475 8.9375 -2 10 C-2.33 11.98 -2.66 13.96 -3 16 C1.62 16 6.24 16 11 16 C11 12.7 11 9.4 11 6 C11.33 6 11.66 6 12 6 C12 9.63 12 13.26 12 17 C6.06 17 0.12 17 -6 17 C-3.75 8 -3.75 8 -1.875 4 C-1.34519531 2.8553125 -1.34519531 2.8553125 -0.8046875 1.6875 C-0.53914063 1.130625 -0.27359375 0.57375 0 0 Z " fill="#DF595C" transform="translate(331,265)"/>
<path d="M0 0 C2.40371416 2.40371416 2.78457638 4.08905233 3.7265625 7.33984375 C4.0359375 8.40267578 4.3453125 9.46550781 4.6640625 10.56054688 C4.98117187 11.67494141 5.29828125 12.78933594 5.625 13.9375 C5.94984375 15.04802734 6.2746875 16.15855469 6.609375 17.30273438 C9 25.59458705 9 25.59458705 9 29 C8.01 29 7.02 29 6 29 C5.81824219 27.96939453 5.81824219 27.96939453 5.6328125 26.91796875 C5.46523438 26.01691406 5.29765625 25.11585938 5.125 24.1875 C4.88136719 22.84751953 4.88136719 22.84751953 4.6328125 21.48046875 C4.08811551 18.77272154 4.08811551 18.77272154 2 16 C1.54229325 13.25658482 1.16908662 10.57257529 0.875 7.8125 C0.78863281 7.06291016 0.70226562 6.31332031 0.61328125 5.54101562 C0.40161618 3.69482588 0.19984536 1.84750656 0 0 Z " fill="#E75655" transform="translate(463,173)"/>
<path d="M0 0 C0.33 0 0.66 0 1 0 C1.13496251 2.10241603 1.23197307 4.2072961 1.3125 6.3125 C1.37050781 7.48425781 1.42851562 8.65601563 1.48828125 9.86328125 C1.32714844 10.89839844 1.16601562 11.93351562 1 13 C-1.4375 14.75 -1.4375 14.75 -4 16 C-5.34689915 18.57099402 -5.34689915 18.57099402 -6 21 C-6.66 21 -7.32 21 -8 21 C-6.033631 13.63011293 -3.30417422 6.86954798 0 0 Z " fill="#EE6262" transform="translate(255,272)"/>
<path d="M0 0 C8.17584961 1.71429105 16.31053596 3.66789892 24 7 C24 7.33 24 7.66 24 8 C23.05125 7.855625 22.1025 7.71125 21.125 7.5625 C18.06817787 7.12226801 15.01181874 6.79301374 11.9375 6.5 C8.25815997 6.14610928 4.63768441 5.67009976 1 5 C0.67 3.35 0.34 1.7 0 0 Z " fill="#EE5959" transform="translate(312,32)"/>
<path d="M0 0 C1.485 0.99 1.485 0.99 3 2 C3.34057617 4.88916016 3.34057617 4.88916016 3.29296875 8.5390625 C3.28330078 9.84101563 3.27363281 11.14296875 3.26367188 12.484375 C3.23860388 13.86458923 3.21320902 15.24479756 3.1875 16.625 C3.17245517 18.01300663 3.15876641 19.40102867 3.14648438 20.7890625 C3.1110257 24.19309509 3.06160298 27.59635622 3 31 C2.67 31 2.34 31 2 31 C1.25983116 26.95936297 0.8316714 23.04917891 0.68359375 18.9453125 C0.62075195 17.28242188 0.62075195 17.28242188 0.55664062 15.5859375 C0.51732422 14.44382812 0.47800781 13.30171875 0.4375 12.125 C0.39431641 10.9596875 0.35113281 9.794375 0.30664062 8.59375 C0.20098371 5.72927375 0.09888201 2.86471679 0 0 Z " fill="#EC504F" transform="translate(337,347)"/>
<path d="M0 0 C-0.33 1.65 -0.66 3.3 -1 5 C0.65 5 2.3 5 4 5 C3.67 6.32 3.34 7.64 3 9 C3.66 9.33 4.32 9.66 5 10 C5.72159424 11.64363134 6.39351421 13.31050386 7 15 C6.34 15 5.68 15 5 15 C5 14.34 5 13.68 5 13 C4.34 13 3.68 13 3 13 C1.39365985 11.26608049 -0.1375287 9.461909 -1.625 7.625 C-2.44226563 6.62726563 -3.25953125 5.62953125 -4.1015625 4.6015625 C-6 2 -6 2 -6 0 C-2.25 -1.125 -2.25 -1.125 0 0 Z " fill="#EE6564" transform="translate(334,325)"/>
<path d="M0 0 C1.28517122 2.57034244 0.84670488 3.66885251 0.29296875 6.46484375 C0.11830078 7.34720703 -0.05636719 8.22957031 -0.23632812 9.13867188 C-0.42646484 10.06228516 -0.61660156 10.98589844 -0.8125 11.9375 C-0.99103516 12.85724609 -1.16957031 13.77699219 -1.35351562 14.72460938 C-1.53205078 15.60826172 -1.71058594 16.49191406 -1.89453125 17.40234375 C-2.05800049 18.21179443 -2.22146973 19.02124512 -2.38989258 19.85522461 C-3 22 -3 22 -5 25 C-5.25515919 17.47280398 -4.28297723 10.41148455 -3 3 C-2.34 3 -1.68 3 -1 3 C-0.67 2.01 -0.34 1.02 0 0 Z " fill="#EB6B6B" transform="translate(84,336)"/>
<path d="M0 0 C0.66 0 1.32 0 2 0 C0.11178127 6.06217591 -2.17692561 11.7160272 -4.859375 17.46875 C-6.11583502 20.25705854 -7.12854466 23.06874112 -8 26 C-8.33 26 -8.66 26 -9 26 C-9.125 19.25 -9.125 19.25 -8 17 C-7.34 17 -6.68 17 -6 17 C-5.87625 15.96875 -5.7525 14.9375 -5.625 13.875 C-5.06110186 10.37883154 -4.21317941 7.31602373 -3 4 C-2.34 4 -1.68 4 -1 4 C-0.67 2.68 -0.34 1.36 0 0 Z " fill="#E76365" transform="translate(330,245)"/>
<path d="M0 0 C0.33 0 0.66 0 1 0 C1.40914103 5.86435476 0.19004493 10.99876153 -1.19921875 16.6875 C-2.26596646 21.10019298 -3.14468935 25.54232212 -4 30 C-6 27 -6 27 -5.75 24.375 C-5.5025 23.26125 -5.255 22.1475 -5 21 C-4.79503906 20.02546875 -4.79503906 20.02546875 -4.5859375 19.03125 C-3.22145038 12.6482255 -1.60553523 6.3258088 0 0 Z " fill="#E66868" transform="translate(113,200)"/>
<path d="M0 0 C2.62187494 1.04874998 3.79371361 1.64931313 5.25 4.125 C5.4975 4.74375 5.745 5.3625 6 6 C6.66 6 7.32 6 8 6 C11 9.46153846 11 9.46153846 11 12 C11.66 12 12.32 12 13 12 C13 12.66 13 13.32 13 14 C12.01 13.67 11.02 13.34 10 13 C10 12.34 10 11.68 10 11 C9.34 11 8.68 11 8 11 C8 10.34 8 9.68 8 9 C7.01 8.67 6.02 8.34 5 8 C5 7.34 5 6.68 5 6 C3.35 5.67 1.7 5.34 0 5 C-0.33 5.66 -0.66 6.32 -1 7 C-1.66 6.67 -2.32 6.34 -3 6 C-2.01 4.02 -1.02 2.04 0 0 Z " fill="#E95559" transform="translate(310,318)"/>
<path d="M0 0 C0.66 0 1.32 0 2 0 C1.38580826 8.59868438 -0.80907021 16.69484752 -3 25 C-3.66 24.67 -4.32 24.34 -5 24 C-5 22.68 -5 21.36 -5 20 C-4.34 20 -3.68 20 -3 20 C-3.01160156 19.28972656 -3.02320312 18.57945312 -3.03515625 17.84765625 C-3.04417969 16.92855469 -3.05320312 16.00945312 -3.0625 15.0625 C-3.07410156 14.14597656 -3.08570312 13.22945313 -3.09765625 12.28515625 C-3 10 -3 10 -2 9 C-1.79395915 7.67218122 -1.6337041 6.33704105 -1.5 5 C-1.11111111 1.11111111 -1.11111111 1.11111111 0 0 Z " fill="#E96564" transform="translate(98,267)"/>
<path d="M0 0 C0.99 0.33 1.98 0.66 3 1 C4.1328125 3.765625 4.1328125 3.765625 5.125 7.25 C5.45757812 8.38953125 5.79015625 9.5290625 6.1328125 10.703125 C6.85838614 13.46161215 7.48350554 16.19617292 8 19 C7.67 18.01 7.34 17.02 7 16 C6.34 16 5.68 16 5 16 C4.80664062 15.36191406 4.61328125 14.72382813 4.4140625 14.06640625 C4.15367187 13.24011719 3.89328125 12.41382813 3.625 11.5625 C3.24214844 10.32693359 3.24214844 10.32693359 2.8515625 9.06640625 C2.19117773 6.82201984 2.19117773 6.82201984 0 6 C-0.33 7.65 -0.66 9.3 -1 11 C-1.33 11 -1.66 11 -2 11 C-1.125 3.375 -1.125 3.375 0 0 Z " fill="#E46F6F" transform="translate(175,271)"/>
<path d="M0 0 C1.60080151 4.00200378 0.29279692 7.04556236 -1 11 C-1.66 11 -2.32 11 -3 11 C-2.71125 11.680625 -2.4225 12.36125 -2.125 13.0625 C-1.97318794 16.63008342 -2.6621405 17.1907743 -4.9375 19.8125 C-5.94440237 20.88821119 -6.96114056 21.95511819 -8 23 C-9.36068665 18.91794004 -8.11170025 17.56205289 -6.25 13.75 C-5.69570313 12.59628906 -5.14140625 11.44257813 -4.5703125 10.25390625 C-4.05210937 9.18011719 -3.53390625 8.10632813 -3 7 C-1.9688038 4.6779268 -0.98109845 2.3437352 0 0 Z " fill="#ED6D6E" transform="translate(270,237)"/>
<path d="M0 0 C1.12176209 3.36528626 0.8545158 4.48782563 0.0390625 7.859375 C-0.18523437 8.81070313 -0.40953125 9.76203125 -0.640625 10.7421875 C-0.88296875 11.73476562 -1.1253125 12.72734375 -1.375 13.75 C-2.83237983 19.81974676 -4.25499164 25.79737226 -5 32 C-5.33 32 -5.66 32 -6 32 C-6.02688151 30.35425434 -6.04634123 28.70838587 -6.0625 27.0625 C-6.07410156 26.14597656 -6.08570313 25.22945312 -6.09765625 24.28515625 C-6 22 -6 22 -5 21 C-4.79300437 19.50503158 -4.63320741 18.0033408 -4.5 16.5 C-4.11111111 12.11111111 -4.11111111 12.11111111 -3 11 C-2.63128912 9.34080104 -2.30404678 7.67225729 -2 6 C-1.11111111 1.11111111 -1.11111111 1.11111111 0 0 Z " fill="#E86E6F" transform="translate(235,139)"/>
<path d="M0 0 C0.33 0 0.66 0 1 0 C1.4179602 10.77408509 0.3197327 20.49216319 -2 31 C-2.33 31 -2.66 31 -3 31 C-2.67 23.74 -2.34 16.48 -2 9 C-1.34 9 -0.68 9 0 9 C0 6.03 0 3.06 0 0 Z " fill="#E55E5D" transform="translate(475,263)"/>
<path d="M0 0 C0.99 0.33 1.98 0.66 3 1 C3 1.66 3 2.32 3 3 C3.99 2.67 4.98 2.34 6 2 C7.25664978 4.90600261 8 6.79604584 8 10 C8.99 10.33 9.98 10.66 11 11 C11 11.66 11 12.32 11 13 C11.66 13 12.32 13 13 13 C13.33 14.65 13.66 16.3 14 18 C10.02361267 15.1281647 7.48469141 12.23317796 5 8 C5 7.34 5 6.68 5 6 C4.34 6 3.68 6 3 6 C2.01 4.02 1.02 2.04 0 0 Z " fill="#EC575A" transform="translate(62,377)"/>
<path d="M0 0 C1.48602111 3.8636549 0.40770863 6.22141367 -1 10 C-1.67188497 12.33183607 -2.33915417 14.66501142 -3 17 C-3.33 17.99 -3.66 18.98 -4 20 C-6.0625 20.6875 -6.0625 20.6875 -8 21 C-6.65305662 15.48977708 -4.53533261 10.58248708 -2.12109375 5.453125 C-0.92308231 2.94709861 -0.92308231 2.94709861 0 0 Z " fill="#EC6665" transform="translate(289,192)"/>
<path d="M0 0 C7.94787893 0.88309766 15.61868821 2.92223281 23 6 C23 6.66 23 7.32 23 8 C15.47809387 6.73525472 8.04707505 4.97207778 1 2 C0.67 1.34 0.34 0.68 0 0 Z " fill="#E85B5A" transform="translate(168,461)"/>
<path d="M0 0 C0 0.66 0 1.32 0 2 C-0.66 2 -1.32 2 -2 2 C-2 2.66 -2 3.32 -2 4 C-3.32 4 -4.64 4 -6 4 C-6.268125 4.639375 -6.53625 5.27875 -6.8125 5.9375 C-8 8 -8 8 -11 9 C-12.99961564 9.03920815 -15.00049364 9.04443347 -17 9 C-14.41994017 6.00641141 -11.45675187 4.54433112 -7.9375 2.8125 C-6.87402344 2.28269531 -5.81054688 1.75289062 -4.71484375 1.20703125 C-2 0 -2 0 0 0 Z " fill="#EC5353" transform="translate(157,43)"/>
<path d="M0 0 C1.10914742 3.32744227 1.03211839 5.64561525 0 9 C-0.515625 9.495 -1.03125 9.99 -1.5625 10.5 C-2.036875 10.995 -2.51125 11.49 -3 12 C-2.95875 12.825 -2.9175 13.65 -2.875 14.5 C-2.91625 15.325 -2.9575 16.15 -3 17 C-5.5 18.8125 -5.5 18.8125 -8 20 C-6.33333333 15 -4.66666667 10 -3 5 C-2.34 5 -1.68 5 -1 5 C-0.67 3.35 -0.34 1.7 0 0 Z " fill="#EB5D5D" transform="translate(303,334)"/>
<path d="M0 0 C0.66 0 1.32 0 2 0 C1.31583566 4.17576168 -0.01365009 7.88080407 -1.5625 11.8125 C-2.01753906 12.97394531 -2.47257812 14.13539063 -2.94140625 15.33203125 C-3.29074219 16.21246094 -3.64007813 17.09289062 -4 18 C-5.04702186 14.2735915 -5.07442057 10.86986958 -5 7 C-4.01 7 -3.02 7 -2 7 C-1.855625 6.401875 -1.71125 5.80375 -1.5625 5.1875 C-1.1127561 3.43849596 -0.57107659 1.71322977 0 0 Z " fill="#E96062" transform="translate(295,329)"/>
<path d="M0 0 C0.33 0 0.66 0 1 0 C0.91911825 3.10523354 0.8062811 6.20850333 0.6875 9.3125 C0.66494141 10.19357422 0.64238281 11.07464844 0.61914062 11.98242188 C0.5659668 13.25375977 0.5659668 13.25375977 0.51171875 14.55078125 C0.48553467 15.33106689 0.45935059 16.11135254 0.43237305 16.9152832 C-0.0931671 19.44921166 -1.0408526 20.36927777 -3 22 C-3.45755719 14.37404682 -1.74536299 7.3970146 0 0 Z " fill="#E76A6B" transform="translate(29,195)"/>
<path d="M0 0 C2.0625 0.4375 2.0625 0.4375 4 1 C2.625 3 2.625 3 1 5 C0.34 5 -0.32 5 -1 5 C-1 5.66 -1 6.32 -1 7 C-1.66 7 -2.32 7 -3 7 C-3 7.66 -3 8.32 -3 9 C-3.66 9 -4.32 9 -5 9 C-5.33 9.66 -5.66 10.32 -6 11 C-6.3125 8.8125 -6.3125 8.8125 -6 6 C-3.5625 3.25 -3.5625 3.25 -1 1 C-0.67 0.67 -0.34 0.34 0 0 Z " fill="#F15957" transform="translate(414,402)"/>
<path d="M0 0 C0.33 0 0.66 0 1 0 C1.37369729 7.47394574 0.04061541 13.82140651 -2 21 C-2.33 21 -2.66 21 -3 21 C-3.0816082 18.62429457 -3.14077222 16.25144159 -3.1875 13.875 C-3.22520508 12.87726563 -3.22520508 12.87726563 -3.26367188 11.859375 C-3.33320714 7.13097708 -2.40278375 4.04878521 0 0 Z " fill="#EB5858" transform="translate(119,170)"/>
<path d="M0 0 C1.5 1.375 1.5 1.375 3 3 C3 3.66 3 4.32 3 5 C3.66 5 4.32 5 5 5 C6.2890625 6.75 6.2890625 6.75 7.625 9 C8.07101563 9.7425 8.51703125 10.485 8.9765625 11.25 C9.31429687 11.8275 9.65203125 12.405 10 13 C9.01 13.495 9.01 13.495 8 14 C7.67 12.68 7.34 11.36 7 10 C6.21625 9.9175 5.4325 9.835 4.625 9.75 C2 9 2 9 0.6875 7.25 C-0.08405427 4.72491331 -0.14589484 2.62610707 0 0 Z " fill="#ED5E5F" transform="translate(104,125)"/>
<path d="M0 0 C1.65 0 3.3 0 5 0 C3.33333333 1.66666667 1.66666667 3.33333333 0 5 C-0.721875 5.763125 -1.44375 6.52625 -2.1875 7.3125 C-4 9 -4 9 -6 9 C-6.33 7.35 -6.66 5.7 -7 4 C-6.01 3.67 -5.02 3.34 -4 3 C-3.34 3.33 -2.68 3.66 -2 4 C-2 3.34 -2 2.68 -2 2 C-1.34 2 -0.68 2 0 2 C0 1.34 0 0.68 0 0 Z " fill="#F05E5D" transform="translate(401,415)"/>
<path d="M0 0 C0.66 0.33 1.32 0.66 2 1 C1.34 2.32 0.68 3.64 0 5 C-0.99 5 -1.98 5 -3 5 C-3 5.99 -3 6.98 -3 8 C-4.96466413 9.06775224 -6.96855359 10.06553465 -9 11 C-9.66 10.67 -10.32 10.34 -11 10 C-10.67 8.68 -10.34 7.36 -10 6 C-10 6.66 -10 7.32 -10 8 C-8.35 7.34 -6.7 6.68 -5 6 C-5 5.34 -5 4.68 -5 4 C-3.35 3.34 -1.7 2.68 0 2 C0 1.34 0 0.68 0 0 Z " fill="#EF5E63" transform="translate(229,382)"/>
<path d="M0 0 C0.66 0.33 1.32 0.66 2 1 C2.59355614 3.64860427 2.74209269 6.29197322 3 9 C0 10 0 10 -3 9 C-2.44271087 5.65626525 -1.64826111 2.96687001 0 0 Z " fill="#F24342" transform="translate(307,325)"/>
<path d="M0 0 C4.8 4.2 4.8 4.2 5.5625 7.25 C4.70348205 11.44964333 2.87293856 15.16214821 1 19 C-0.05802584 15.75933345 0.0974573 13.65830415 0.9375 10.375 C1.74693015 7.22191545 1.74693015 7.22191545 2 4 C1.34 4 0.68 4 0 4 C0 2.68 0 1.36 0 0 Z " fill="#E96A6C" transform="translate(298,309)"/>
<path d="M0 0 C10.21387283 0.19075145 10.21387283 0.19075145 13.125 3.1875 C14.03953 6.12706072 14.64446555 8.94240371 15 12 C14.01 11.67 13.02 11.34 12 11 C11.67 8.36 11.34 5.72 11 3 C9.9275 3.020625 8.855 3.04125 7.75 3.0625 C4.85209576 3.0142016 2.71387859 2.86844115 0 2 C0 1.34 0 0.68 0 0 Z " fill="#EC7676" transform="translate(203,376)"/>
<path d="M0 0 C0 0.66 0 1.32 0 2 C-1.65 2 -3.3 2 -5 2 C-5.33644531 2.96679688 -5.33644531 2.96679688 -5.6796875 3.953125 C-7 6 -7 6 -9.3828125 6.609375 C-10.28773438 6.65578125 -11.19265625 6.7021875 -12.125 6.75 C-13.03507813 6.80671875 -13.94515625 6.8634375 -14.8828125 6.921875 C-15.58148438 6.94765625 -16.28015625 6.9734375 -17 7 C-13.96205445 4.48757583 -11.08561027 3.11771466 -7.375 1.8125 C-6.41335937 1.46832031 -5.45171875 1.12414063 -4.4609375 0.76953125 C-2 0 -2 0 0 0 Z " fill="#ED5D5A" transform="translate(175,36)"/>
<path d="M0 0 C7.62595318 -0.45755719 14.6029854 1.25463701 22 3 C21.34 3.66 20.68 4.32 20 5 C17.39508339 4.8185339 14.94318377 4.53723614 12.375 4.125 C11.66859375 4.02058594 10.9621875 3.91617187 10.234375 3.80859375 C8.48807586 3.54900874 6.74381401 3.27578567 5 3 C5 2.34 5 1.68 5 1 C3.35 1 1.7 1 0 1 C0 0.67 0 0.34 0 0 Z " fill="#E87776" transform="translate(283,26)"/>
<path d="M0 0 C0.33 0 0.66 0 1 0 C0.67 3.3 0.34 6.6 0 10 C-0.66 10 -1.32 10 -2 10 C-2.33 11.65 -2.66 13.3 -3 15 C-3.99 15.33 -4.98 15.66 -6 16 C-4.56176509 10.36691325 -2.45855991 5.26322777 0 0 Z " fill="#EA6564" transform="translate(237,314)"/>
<path d="M0 0 C0.33 0 0.66 0 1 0 C1 4.62 1 9.24 1 14 C0.01 14.495 0.01 14.495 -1 15 C-1.65772428 18.02934491 -1.65772428 18.02934491 -2 21 C-2.66 21 -3.32 21 -4 21 C-3.29843593 13.84404654 -1.69214979 6.98144819 0 0 Z " fill="#E96868" transform="translate(172,283)"/>
<path d="M0 0 C0.99 0.495 0.99 0.495 2 1 C2 2.98 2 4.96 2 7 C2.99 6.67 3.98 6.34 5 6 C4.67 10.95 4.34 15.9 4 21 C3.67 21 3.34 21 3 21 C2.49749755 17.87539701 1.99842443 14.75025588 1.5 11.625 C1.35691406 10.73554688 1.21382812 9.84609375 1.06640625 8.9296875 C0.93105469 8.07890625 0.79570312 7.228125 0.65625 6.3515625 C0.53056641 5.56604004 0.40488281 4.78051758 0.27539062 3.97119141 C0 2 0 2 0 0 Z " fill="#E85E5E" transform="translate(25,280)"/>
<path d="M0 0 C0.66 0 1.32 0 2 0 C5 6.5 5 6.5 5 11 C5.66 11 6.32 11 7 11 C7.33 12.65 7.66 14.3 8 16 C7.34 16.33 6.68 16.66 6 17 C0.44419134 5.47835991 0.44419134 5.47835991 0 0 Z " fill="#E85C5C" transform="translate(36,325)"/>
<path d="M0 0 C0 0.66 0 1.32 0 2 C-1.78398614 3.28006797 -3.62853906 4.47660351 -5.5 5.625 C-7.03140625 6.57246094 -7.03140625 6.57246094 -8.59375 7.5390625 C-9.3878125 8.02117187 -10.181875 8.50328125 -11 9 C-11.33 8.01 -11.66 7.02 -12 6 C-10.35 5.67 -8.7 5.34 -7 5 C-7.33 3.68 -7.66 2.36 -8 1 C-5.29120665 -0.35439668 -2.99066732 -0.06501451 0 0 Z " fill="#ED5E5D" transform="translate(383,433)"/>
<path d="M0 0 C1.41377341 2.63904371 2.37240135 5.07120629 3 8 C4.65 7.67 6.3 7.34 8 7 C7.34 9.64 6.68 12.28 6 15 C3.0482115 11.53928245 0.71098359 8.23243308 -1 4 C-0.6875 1.625 -0.6875 1.625 0 0 Z " fill="#EF5B5A" transform="translate(48,349)"/>
<path d="M0 0 C0.99 0.33 1.98 0.66 3 1 C4.62323754 4.75907641 5.23994929 7.92086213 5 12 C4.01 12.495 4.01 12.495 3 13 C2.49242138 11.58603098 1.99425075 10.16868271 1.5 8.75 C1.08234375 7.56664062 1.08234375 7.56664062 0.65625 6.359375 C0 4 0 4 0 0 Z " fill="#EB5C5D" transform="translate(216,148)"/>
<path d="M0 0 C0.33 0.66 0.66 1.32 1 2 C1.66 2 2.32 2 3 2 C2.38479725 5.99881788 0.39731331 8.80358226 -2 12 C-2.66 12 -3.32 12 -4 12 C-3.33989524 9.15449988 -2.48275034 6.47674001 -1.4375 3.75 C-1.16808594 3.04359375 -0.89867187 2.3371875 -0.62109375 1.609375 C-0.41613281 1.07828125 -0.21117187 0.5471875 0 0 Z " fill="#EA5757" transform="translate(289,366)"/>
<path d="M0 0 C3.22047757 3.22047757 3.90640853 6.7833109 4.25 11.25 C4 14 4 14 2 16 C2 14.68 2 13.36 2 12 C1.34 12 0.68 12 0 12 C0 8.04 0 4.08 0 0 Z " fill="#EB6D6F" transform="translate(205,352)"/>
<path d="M0 0 C-5.66748157 2.83374078 -10.69732561 3.63223832 -17 4 C-17 3.34 -17 2.68 -17 2 C-14.91952703 1.4678559 -12.83547707 0.94968214 -10.75 0.4375 C-9.58984375 0.14746094 -8.4296875 -0.14257812 -7.234375 -0.44140625 C-4.27909017 -0.95179964 -2.75565899 -1.02996165 0 0 Z " fill="#E66363" transform="translate(209,28)"/>
<path d="M0 0 C2.72863567 2.72863567 3.47085394 5.91006895 4.625 9.5 C4.85445312 10.18964844 5.08390625 10.87929688 5.3203125 11.58984375 C7 16.71888951 7 16.71888951 7 19 C6.01 18.67 5.02 18.34 4 18 C3.81824219 16.98679687 3.81824219 16.98679687 3.6328125 15.953125 C3.46523437 15.06109375 3.29765625 14.1690625 3.125 13.25 C2.96257812 12.36828125 2.80015625 11.4865625 2.6328125 10.578125 C2.10971325 8.01497625 2.10971325 8.01497625 0.9296875 5.921875 C0 4 0 4 0 0 Z " fill="#EA6F70" transform="translate(185,296)"/>
<path d="M0 0 C0.66 0.33 1.32 0.66 2 1 C1.67 1.66 1.34 2.32 1 3 C0.34 3 -0.32 3 -1 3 C-1.0825 3.78375 -1.165 4.5675 -1.25 5.375 C-2 8 -2 8 -3.875 9.25 C-5.57726879 9.85080075 -7.28745438 10.42915146 -9 11 C-8.1875 9.0625 -8.1875 9.0625 -7 7 C-6.01 6.67 -5.02 6.34 -4 6 C-4 5.34 -4 4.68 -4 4 C-3.34 4 -2.68 4 -2 4 C-2 3.34 -2 2.68 -2 2 C-1.34 2 -0.68 2 0 2 C0 1.34 0 0.68 0 0 Z " fill="#ED6464" transform="translate(91,87)"/>
<path d="M0 0 C0.66 0.33 1.32 0.66 2 1 C1.04600922 2.79398267 0.08665974 4.58511655 -0.875 6.375 C-1.40867187 7.37273437 -1.94234375 8.37046875 -2.4921875 9.3984375 C-4 12 -4 12 -6 14 C-5.41196203 10.97580475 -4.77321882 7.98241547 -4 5 C-3.34 5 -2.68 5 -2 5 C-1.855625 4.360625 -1.71125 3.72125 -1.5625 3.0625 C-1 1 -1 1 0 0 Z " fill="#EA6065" transform="translate(449,355)"/>
<path d="M0 0 C0.33 0 0.66 0 1 0 C1.48667297 6.00230002 -0.30117022 11.31700989 -2 17 C-2.33 17 -2.66 17 -3 17 C-2.88630789 14.54066009 -2.75957349 12.0832091 -2.625 9.625 C-2.5940625 8.92632812 -2.563125 8.22765625 -2.53125 7.5078125 C-2.2265625 2.2265625 -2.2265625 2.2265625 0 0 Z " fill="#E96062" transform="translate(91,302)"/>
<path d="M0 0 C0.33 0 0.66 0 1 0 C1 3.63 1 7.26 1 11 C-0.32 11 -1.64 11 -3 11 C-3 11.99 -3 12.98 -3 14 C-3.66 13.67 -4.32 13.34 -5 13 C-3.35 8.71 -1.7 4.42 0 0 Z " fill="#ED5C5E" transform="translate(246,293)"/>
<path d="M0 0 C0.33 0 0.66 0 1 0 C0.47462276 5.0302076 -0.10594786 10.01885239 -1 15 C-1.66 14.67 -2.32 14.34 -3 14 C-2.88617347 12.04098546 -2.75858875 10.0827662 -2.625 8.125 C-2.55539063 7.03445313 -2.48578125 5.94390625 -2.4140625 4.8203125 C-2 2 -2 2 0 0 Z " fill="#E95B5D" transform="translate(87,320)"/>
<path d="M0 0 C0.33 0 0.66 0 1 0 C0.40380045 4.86896303 -0.56976822 9.32790951 -2 14 C-2.66 14 -3.32 14 -4 14 C-4 14.66 -4 15.32 -4 16 C-4.66 15.67 -5.32 15.34 -6 15 C-4.02 10.05 -2.04 5.1 0 0 Z " fill="#E86D6D" transform="translate(307,150)"/>
<path d="M0 0 C1.25476971 2.50953942 0.67810745 3.37233363 0 6 C0.33 6.33 0.66 6.66 1 7 C-0.375 9 -0.375 9 -2 11 C-2.66 11 -3.32 11 -4 11 C-4 11.66 -4 12.32 -4 13 C-4.66 13 -5.32 13 -6 13 C-4.58707905 8.1725201 -2.57025846 4.2837641 0 0 Z " fill="#ED6363" transform="translate(51,140)"/>
<path d="M0 0 C0.33 0.66 0.66 1.32 1 2 C-0.09700843 5.2910253 -0.87619858 5.96023288 -3.5 8.0625 C-6.18106401 10.17721767 -6.18106401 10.17721767 -8 13 C-8.66 13 -9.32 13 -10 13 C-8.48446596 9.52224821 -6.4226544 7.0442016 -3.875 4.25 C-3.15054688 3.45078125 -2.42609375 2.6515625 -1.6796875 1.828125 C-0.84824219 0.92320313 -0.84824219 0.92320313 0 0 Z " fill="#EB6768" transform="translate(81,98)"/>
<path d="M0 0 C2.475 0.495 2.475 0.495 5 1 C5 1.66 5 2.32 5 3 C7.475 3.99 7.475 3.99 10 5 C10 5.99 10 6.98 10 8 C9.67 7.34 9.34 6.68 9 6 C6.67843403 5.59270772 4.3431213 5.25561323 2 5 C1.34 3.35 0.68 1.7 0 0 Z " fill="#EE4F53" transform="translate(378,64)"/>
<path d="M0 0 C-4.01254885 3.51098025 -8.20983041 5.76537994 -13 8 C-13 7.34 -13 6.68 -13 6 C-12.34 6 -11.68 6 -11 6 C-11 5.34 -11 4.68 -11 4 C-10.34 4 -9.68 4 -9 4 C-9 3.34 -9 2.68 -9 2 C-5.5647952 -0.29013653 -4.014669 -0.17842973 0 0 Z " fill="#EC676B" transform="translate(369,443)"/>
<path d="M0 0 C-1.31061591 4.23429756 -2.94356259 8.07407404 -5 12 C-5.33 12 -5.66 12 -6 12 C-5.9129995 10.37399059 -5.8048219 8.74910322 -5.6875 7.125 C-5.62949219 6.22007812 -5.57148438 5.31515625 -5.51171875 4.3828125 C-4.81887225 1.15658073 -3.34638587 0 0 0 Z " fill="#EF6567" transform="translate(457,343)"/>
<path d="M0 0 C2.64 0.33 5.28 0.66 8 1 C8 1.99 8 2.98 8 4 C8.66 4 9.32 4 10 4 C9.67 4.99 9.34 5.98 9 7 C8.01 6.67 7.02 6.34 6 6 C6 5.34 6 4.68 6 4 C5.195625 3.71125 4.39125 3.4225 3.5625 3.125 C1 2 1 2 0 0 Z " fill="#EC5252" transform="translate(111,429)"/>
<path d="M0 0 C0.33 0 0.66 0 1 0 C1.27036084 5.27203646 0.26305335 9.92523206 -1 15 C-1.33 15 -1.66 15 -2 15 C-2 11.7 -2 8.4 -2 5 C-2.66 4.67 -3.32 4.34 -4 4 C-3.01 3.67 -2.02 3.34 -1 3 C-0.67 2.01 -0.34 1.02 0 0 Z " fill="#EA6B69" transform="translate(102,252)"/>
<path d="M0 0 C0.33 0 0.66 0 1 0 C1.33 2.31 1.66 4.62 2 7 C1.01 7.33 0.02 7.66 -1 8 C-1 8.99 -1 9.98 -1 11 C-1.99 11.33 -2.98 11.66 -4 12 C-3.52309796 10.37433394 -3.04340334 8.74948689 -2.5625 7.125 C-2.29566406 6.22007812 -2.02882813 5.31515625 -1.75390625 4.3828125 C-1 2 -1 2 0 0 Z " fill="#ED6062" transform="translate(294,354)"/>
<path d="M0 0 C1.37432457 3.81756824 0.67975039 7.07255329 0 11 C-1.32 11 -2.64 11 -4 11 C-3.5247412 9.35303396 -3.04468109 7.70745272 -2.5625 6.0625 C-2.29566406 5.14597656 -2.02882813 4.22945313 -1.75390625 3.28515625 C-1 1 -1 1 0 0 Z " fill="#EB6763" transform="translate(260,261)"/>
<path d="M0 0 C0.66 0 1.32 0 2 0 C1.91253716 1.43861294 1.80434652 2.87597508 1.6875 4.3125 C1.62949219 5.11300781 1.57148437 5.91351563 1.51171875 6.73828125 C0.91793306 9.36272334 0.04219706 10.30820672 -2 12 C-2 2 -2 2 0 0 Z " fill="#EA5A58" transform="translate(98,267)"/>
<path d="M0 0 C-0.99 2.97 -1.98 5.94 -3 9 C-3.66 8.67 -4.32 8.34 -5 8 C-5 5.69 -5 3.38 -5 1 C-2 0 -2 0 0 0 Z " fill="#EF6266" transform="translate(336,235)"/>
<path d="M0 0 C0.33 0 0.66 0 1 0 C1.33 2.64 1.66 5.28 2 8 C0.02 8.99 0.02 8.99 -2 10 C-3.39195915 5.82412255 -1.82323219 3.86525224 0 0 Z " fill="#F26567" transform="translate(293,183)"/>
<path d="M0 0 C2.97 0 5.94 0 9 0 C9 0.33 9 0.66 9 1 C6.69 1.33 4.38 1.66 2 2 C2.99 3.65 3.98 5.3 5 7 C3.68 7 2.36 7 1 7 C1 5.68 1 4.36 1 3 C0.34 3 -0.32 3 -1 3 C-0.67 2.01 -0.34 1.02 0 0 Z " fill="#F17B79" transform="translate(92,109)"/>
<path d="M0 0 C8.57142857 0.71428571 8.57142857 0.71428571 12 4 C9.5332355 4.88336837 8.36140628 5.1312406 5.859375 4.22265625 C5.16328125 3.83980469 4.4671875 3.45695312 3.75 3.0625 C3.04359375 2.68222656 2.3371875 2.30195313 1.609375 1.91015625 C1.07828125 1.60980469 0.5471875 1.30945313 0 1 C0 0.67 0 0.34 0 0 Z " fill="#F06466" transform="translate(147,452)"/>
<path d="M0 0 C0.33 0 0.66 0 1 0 C1 1.98 1 3.96 1 6 C0.01 6.33 -0.98 6.66 -2 7 C-2.33 8.98 -2.66 10.96 -3 13 C-3.66 13 -4.32 13 -5 13 C-3.78184562 8.31479085 -2.30440013 4.29456388 0 0 Z " fill="#E97C7B" transform="translate(230,331)"/>
<path d="M0 0 C2.64752004 2.57784846 4.94432065 4.91648098 7 8 C6.01 8 5.02 8 4 8 C4 7.34 4 6.68 4 6 C2.68 6 1.36 6 0 6 C0 4.02 0 2.04 0 0 Z " fill="#ED5F5E" transform="translate(283,292)"/>
<path d="M0 0 C0.99 0.66 1.98 1.32 3 2 C2.75 4.375 2.75 4.375 2 7 C-0.0625 8.3125 -0.0625 8.3125 -2 9 C-1.41196203 5.97580475 -0.77321882 2.98241547 0 0 Z " fill="#F4343A" transform="translate(290,192)"/>
<path d="M0 0 C1.53445094 3.06890187 0.54984289 5.70094266 0 9 C-0.99 9.33 -1.98 9.66 -3 10 C-3.33 8.35 -3.66 6.7 -4 5 C-3.01 4.67 -2.02 4.34 -1 4 C-0.26676204 1.98491642 -0.26676204 1.98491642 0 0 Z " fill="#E47071" transform="translate(228,171)"/>
<path d="M0 0 C2.11180592 2.57089417 3.66306057 4.63060567 4 8 C3.34 8.66 2.68 9.32 2 10 C0.4375 8.9375 0.4375 8.9375 -1 7 C-0.6875 3.3125 -0.6875 3.3125 0 0 Z " fill="#F05C5C" transform="translate(453,149)"/>
<path d="M0 0 C0 0.66 0 1.32 0 2 C-2.97 2.66 -5.94 3.32 -9 4 C-9 3.01 -9 2.02 -9 1 C-5.94152152 0.45627049 -3.11227195 0 0 0 Z " fill="#EE6262" transform="translate(307,468)"/>
<path d="M0 0 C0.66 0 1.32 0 2 0 C2 0.66 2 1.32 2 2 C2.99 2.33 3.98 2.66 5 3 C5 3.66 5 4.32 5 5 C5.66 5 6.32 5 7 5 C7.33 6.65 7.66 8.3 8 10 C3.92236229 7.13463296 1.97322935 4.56958375 0 0 Z " fill="#E96265" transform="translate(68,385)"/>
<path d="M0 0 C1.83836919 3.67673838 2.93651813 7.04992447 4 11 C3.01 11.495 3.01 11.495 2 12 C2 11.34 2 10.68 2 10 C1.34 10 0.68 10 0 10 C0 6.7 0 3.4 0 0 Z " fill="#ED5E5F" transform="translate(201,340)"/>
<path d="M0 0 C2.475 0.495 2.475 0.495 5 1 C5.33 2.32 5.66 3.64 6 5 C6.66 5 7.32 5 8 5 C7.67 6.32 7.34 7.64 7 9 C5.83037314 7.69013727 4.66437056 6.3770374 3.5 5.0625 C2.8503125 4.33160156 2.200625 3.60070312 1.53125 2.84765625 C0 1 0 1 0 0 Z " fill="#EA5C5B" transform="translate(312,308)"/>
<path d="M0 0 C1.423125 0.495 1.423125 0.495 2.875 1 C5.77062452 2.10159191 5.77062452 2.10159191 8 2 C7.67 3.65 7.34 5.3 7 7 C3.00003714 5.66667905 2.16217663 3.5042173 0 0 Z " fill="#EF6B6E" transform="translate(302,297)"/>
<path d="M0 0 C0.99 0.495 0.99 0.495 2 1 C2 1.66 2 2.32 2 3 C2.66 3 3.32 3 4 3 C4 3.66 4 4.32 4 5 C4.66 5 5.32 5 6 5 C6.33 5.99 6.66 6.98 7 8 C6.01 8.495 6.01 8.495 5 9 C4.01 8.67 3.02 8.34 2 8 C1.26953125 6.15234375 1.26953125 6.15234375 0.8125 3.9375 C0.65394531 3.20402344 0.49539063 2.47054688 0.33203125 1.71484375 C0.22246094 1.14894531 0.11289062 0.58304687 0 0 Z " fill="#ED6162" transform="translate(276,284)"/>
<path d="M0 0 C1.3778771 3.13153887 0.90076044 4.28779473 -0.25 7.625 C-2 11 -2 11 -5 13 C-3.78184562 8.31479085 -2.30440013 4.29456388 0 0 Z " fill="#EA6C6E" transform="translate(314,134)"/>
<path d="M0 0 C0.66 0.99 1.32 1.98 2 3 C1.21718695 4.33855056 0.42348123 5.67073644 -0.375 7 C-0.81585938 7.7425 -1.25671875 8.485 -1.7109375 9.25 C-2.13632812 9.8275 -2.56171875 10.405 -3 11 C-3.66 11 -4.32 11 -5 11 C-3.77472971 6.94718288 -2.30119506 3.55639236 0 0 Z " fill="#EA696B" transform="translate(57,129)"/>
<path d="M0 0 C2.64752004 2.57784846 4.94432065 4.91648098 7 8 C5.68 8.33 4.36 8.66 3 9 C2.01 6.03 1.02 3.06 0 0 Z " fill="#F16D6E" transform="translate(414,93)"/>
<path d="M0 0 C3.14624993 -0.26218749 4.61837017 -0.24754367 7.3125 1.5 C8.1478125 2.2425 8.1478125 2.2425 9 3 C2.25 4.125 2.25 4.125 0 3 C0 2.01 0 1.02 0 0 Z " fill="#F35151" transform="translate(329,457)"/>
<path d="M0 0 C0.33 0.66 0.66 1.32 1 2 C1.66 2 2.32 2 3 2 C6 5.46153846 6 5.46153846 6 8 C6.66 8 7.32 8 8 8 C8 8.66 8 9.32 8 10 C7.01 9.67 6.02 9.34 5 9 C5 8.34 5 7.68 5 7 C4.34 7 3.68 7 3 7 C3 6.34 3 5.68 3 5 C2.01 4.67 1.02 4.34 0 4 C0 2.68 0 1.36 0 0 Z " fill="#EA6E6D" transform="translate(315,322)"/>
<path d="M0 0 C2.8290723 2.8290723 3.37611108 3.38144425 4 7 C2.35 7.66 0.7 8.32 -1 9 C-0.67 6.03 -0.34 3.06 0 0 Z " fill="#F1585A" transform="translate(444,133)"/>
<path d="M0 0 C0 0.66 0 1.32 0 2 C-0.94875 2.45375 -1.8975 2.9075 -2.875 3.375 C-6.00313679 4.80238254 -6.00313679 4.80238254 -8 7 C-8.99 6.34 -9.98 5.68 -11 5 C-9.54462432 4.16151196 -8.08559627 3.32936066 -6.625 2.5 C-5.81289062 2.0359375 -5.00078125 1.571875 -4.1640625 1.09375 C-2 0 -2 0 0 0 Z " fill="#ED7172" transform="translate(140,52)"/>
<path d="M0 0 C2.1793144 1.75864246 2.93686419 2.69396 3.51171875 5.48046875 C3.56972656 6.37378906 3.62773437 7.26710937 3.6875 8.1875 C3.75324219 9.08855469 3.81898438 9.98960937 3.88671875 10.91796875 C3.92410156 11.60503906 3.96148437 12.29210937 4 13 C0.90576832 9.90576832 0.06293995 6.4476188 -0.125 2.125 C-0.08375 1.42375 -0.0425 0.7225 0 0 Z " fill="#EB7574" transform="translate(212,135)"/>
<path d="M0 0 C5.57142857 5.14285714 5.57142857 5.14285714 6 9 C4.68 8.67 3.36 8.34 2 8 C2 6.68 2 5.36 2 4 C1.34 4 0.68 4 0 4 C0 2.68 0 1.36 0 0 Z " fill="#EB686A" transform="translate(427,108)"/>
<path d="M0 0 C0.99 0 1.98 0 3 0 C2.67 1.32 2.34 2.64 2 4 C-1.63 3.67 -5.26 3.34 -9 3 C-9 2.67 -9 2.34 -9 2 C-6.94921875 1.77213542 -4.8984375 1.54427083 -2.84765625 1.31640625 C-0.98859771 1.18113386 -0.98859771 1.18113386 0 0 Z " fill="#F74045" transform="translate(173,458)"/>
<path d="M0 0 C3.63 0.33 7.26 0.66 11 1 C10.67 1.66 10.34 2.32 10 3 C3.375 3.125 3.375 3.125 0 2 C0 1.34 0 0.68 0 0 Z " fill="#F43539" transform="translate(203,378)"/>
<path d="M0 0 C0.99 0 1.98 0 3 0 C3.19622241 4.21878192 2.80230168 7.17010894 1 11 C-0.17571451 7.32589215 -0.07366746 3.83070817 0 0 Z " fill="#EE5753" transform="translate(290,336)"/>
<path d="M0 0 C0.66 0.33 1.32 0.66 2 1 C-2.30769231 6.78461538 -2.30769231 6.78461538 -5.8125 7.875 C-6.8953125 7.936875 -6.8953125 7.936875 -8 8 C-5.33333333 5.33333333 -2.66666667 2.66666667 0 0 Z " fill="#EC7679" transform="translate(109,71)"/>
<path d="M0 0 C0.33 0.66 0.66 1.32 1 2 C0.67 2.66 0.34 3.32 0 4 C-0.99 4 -1.98 4 -3 4 C-3 4.66 -3 5.32 -3 6 C-4.65 6 -6.3 6 -8 6 C-5.38485683 3.87961365 -2.80362384 1.86908256 0 0 Z " fill="#EA676C" transform="translate(128,58)"/>
<path d="M0 0 C0 0.66 0 1.32 0 2 C-0.66 2 -1.32 2 -2 2 C-2 2.66 -2 3.32 -2 4 C-4.64 4.33 -7.28 4.66 -10 5 C-3.63636364 0 -3.63636364 0 0 0 Z " fill="#EB6469" transform="translate(157,43)"/>
<path d="M0 0 C1.60031344 3.20062687 0.03173691 5.72271806 -1 9 C-1.66 8.34 -2.32 7.68 -3 7 C-3 5.68 -3 4.36 -3 3 C-2.34 3 -1.68 3 -1 3 C-0.67 2.01 -0.34 1.02 0 0 Z " fill="#E55352" transform="translate(84,336)"/>
<path d="M0 0 C-0.33 1.32 -0.66 2.64 -1 4 C-2.9375 3.6875 -2.9375 3.6875 -5 3 C-5.33 2.01 -5.66 1.02 -6 0 C-2.25 -1.125 -2.25 -1.125 0 0 Z " fill="#F14E4C" transform="translate(334,325)"/>
<path d="M0 0 C1.65 0 3.3 0 5 0 C4.01 0.495 4.01 0.495 3 1 C3.33 2.98 3.66 4.96 4 7 C2.35 5.35 0.7 3.7 -1 2 C-0.67 1.34 -0.34 0.68 0 0 Z " fill="#EA6163" transform="translate(298,290)"/>
<path d="M0 0 C0.66 0.33 1.32 0.66 2 1 C1.01 3.97 0.02 6.94 -1 10 C-1.33 10 -1.66 10 -2 10 C-2 7.69 -2 5.38 -2 3 C-1.34 3 -0.68 3 0 3 C0 2.01 0 1.02 0 0 Z " fill="#ED7074" transform="translate(347,202)"/>
<path d="M0 0 C2.76223278 2.76223278 2.57856291 5.20706617 3 9 C2.01 9 1.02 9 0 9 C0 6.03 0 3.06 0 0 Z " fill="#ED6970" transform="translate(469,193)"/>
<path d="M0 0 C0.33 0 0.66 0 1 0 C1 2.64 1 5.28 1 8 C-0.32 8.33 -1.64 8.66 -3 9 C-2.01 6.03 -1.02 3.06 0 0 Z " fill="#EF6766" transform="translate(300,166)"/>
<path d="M0 0 C0 0.66 0 1.32 0 2 C-2.64 2 -5.28 2 -8 2 C-8 1.34 -8 0.68 -8 0 C-4.94736336 -0.98120464 -3.05263664 -0.98120464 0 0 Z " fill="#F33736" transform="translate(233,473)"/>
<path d="M0 0 C1.65 0 3.3 0 5 0 C5 0.99 5 1.98 5 3 C5.99 3.33 6.98 3.66 8 4 C7.34 4.66 6.68 5.32 6 6 C3.97945196 4.35830472 1.97956942 2.69088222 0 1 C0 0.67 0 0.34 0 0 Z " fill="#ED6464" transform="translate(95,416)"/>
<path d="M0 0 C0.99 0.495 0.99 0.495 2 1 C2 1.66 2 2.32 2 3 C3.32 3.66 4.64 4.32 6 5 C5.67 5.99 5.34 6.98 5 8 C4.34 8 3.68 8 3 8 C0 2.25 0 2.25 0 0 Z " fill="#EA6B6E" transform="translate(327,336)"/>
<path d="M0 0 C0.99 0.33 1.98 0.66 3 1 C2.34 3.64 1.68 6.28 1 9 C0.67 9 0.34 9 0 9 C0 6.03 0 3.06 0 0 Z " fill="#EC6868" transform="translate(469,298)"/>
<path d="M0 0 C0.33 0 0.66 0 1 0 C1 2.64 1 5.28 1 8 C0.01 8.33 -0.98 8.66 -2 9 C-1.51421457 5.87709365 -1.0013988 3.00419641 0 0 Z " fill="#EA6668" transform="translate(334,256)"/>
<path d="M0 0 C0.99 0.33 1.98 0.66 3 1 C2.25 5.75 2.25 5.75 0 8 C0 5.36 0 2.72 0 0 Z " fill="#EB5658" transform="translate(26,209)"/>
<path d="M0 0 C7.50769231 -0.36923077 7.50769231 -0.36923077 10 1.5 C10.495 2.2425 10.495 2.2425 11 3 C9.02 3 7.04 3 5 3 C5 2.34 5 1.68 5 1 C3.35 1 1.7 1 0 1 C0 0.67 0 0.34 0 0 Z " fill="#E65456" transform="translate(283,26)"/>
<path d="M0 0 C0.91058531 3.07322544 1.08886184 5.80097361 1 9 C0.01 9.495 0.01 9.495 -1 10 C-1.9765625 3.9453125 -1.9765625 3.9453125 -2 2 C-1.34 1.34 -0.68 0.68 0 0 Z " fill="#F13636" transform="translate(84,327)"/>
<path d="M0 0 C0.99 0.33 1.98 0.66 3 1 C3 2.65 3 4.3 3 6 C2.01 6 1.02 6 0 6 C0 4.02 0 2.04 0 0 Z " fill="#FD3032" transform="translate(175,277)"/>
<path d="M0 0 C3.05882701 1.52941351 3.68951234 3.94219546 5 7 C4.67 7.66 4.34 8.32 4 9 C3.01 8.34 2.02 7.68 1 7 C0.3125 3.375 0.3125 3.375 0 0 Z " fill="#EB696A" transform="translate(448,140)"/>
</svg>
